<svg width="49" height="49" viewBox="0 0 49 49" fill="none" xmlns="http://www.w3.org/2000/svg">
<path d="M22.126 22.9308C24.8998 22.9308 27.1482 20.6825 27.1482 17.9086C27.1482 15.1348 24.8998 12.8864 22.126 12.8864C19.3521 12.8864 17.1038 15.1348 17.1038 17.9086C17.1048 20.6815 19.3531 22.9289 22.126 22.9308ZM22.126 14.0721C24.2446 14.0721 25.9616 15.789 25.9616 17.9077C25.9616 20.0263 24.2446 21.7433 22.126 21.7433C20.0074 21.7433 18.2904 20.0263 18.2904 17.9077C18.2914 15.79 20.0083 14.073 22.126 14.0721Z" fill="#879CD8"/>
<path d="M25.3422 24.761C25.4516 24.4523 25.2899 24.1126 24.9812 24.0032C20.5175 22.4285 15.623 24.7717 14.0483 29.2354C13.726 30.1491 13.5605 31.1121 13.5605 32.0809C13.5605 32.408 13.8257 32.6742 14.1538 32.6742C14.481 32.6742 14.7471 32.409 14.7471 32.0809C14.7481 28.0033 18.0543 24.6991 22.1309 24.7001C22.9671 24.7001 23.7975 24.8423 24.5853 25.1211C24.8941 25.2304 25.2328 25.0698 25.3422 24.761Z" fill="#879CD8"/>
<path d="M29.2126 27.9153C27.8896 27.9153 26.8182 28.9886 26.8182 30.3107C26.8182 31.6337 27.8915 32.7052 29.2136 32.7052C30.5357 32.7052 31.6081 31.6328 31.6081 30.3107C31.6071 28.9867 30.5347 27.9153 29.2126 27.9153ZM29.2126 31.5186C28.5448 31.5186 28.0048 30.9766 28.0048 30.3097C28.0048 29.6419 28.5468 29.1018 29.2136 29.1018C29.8805 29.1018 30.4215 29.6429 30.4215 30.3107C30.4215 30.9775 29.8805 31.5186 29.2126 31.5186Z" fill="#879CD8"/>
<path d="M34.3124 30.6465C34.3269 30.422 34.3269 30.1965 34.3124 29.971L34.7866 28.8134C34.8418 28.6798 34.8456 28.5318 34.7992 28.3953C34.5514 27.6713 34.1643 27.0026 33.662 26.4248C33.5671 26.3164 33.4364 26.2457 33.2932 26.2273L32.0514 26.0608C31.8637 25.935 31.6682 25.8228 31.4659 25.7231L30.7023 24.731C30.6142 24.6168 30.4874 24.5384 30.3461 24.5113C29.595 24.3632 28.8227 24.3632 28.0716 24.5113C27.9303 24.5394 27.8035 24.6168 27.7155 24.731L26.9509 25.724C26.7486 25.8237 26.5531 25.936 26.3653 26.0618L25.1245 26.2273C24.9813 26.2467 24.8506 26.3164 24.7558 26.4248C24.2525 27.0016 23.8663 27.6704 23.6186 28.3953C23.5721 28.5318 23.576 28.6808 23.6311 28.8134L24.1054 29.9719C24.0909 30.1965 24.0909 30.422 24.1054 30.6475L23.6311 31.805C23.576 31.9386 23.5721 32.0867 23.6186 32.2232C23.8663 32.9471 24.2525 33.6159 24.7558 34.1937C24.8506 34.3021 24.9813 34.3728 25.1245 34.3911L26.3663 34.5576C26.554 34.6834 26.7496 34.7957 26.9518 34.8954L27.7155 35.8874C27.8035 36.0016 27.9303 36.08 28.0716 36.1071C28.8227 36.2552 29.595 36.2552 30.3461 36.1071C30.4874 36.0791 30.6142 36.0016 30.7023 35.8874L31.4669 34.8944C31.6691 34.7947 31.8647 34.6825 32.0524 34.5566L33.2932 34.3911C33.4364 34.3718 33.5671 34.3021 33.662 34.1937C34.1652 33.6169 34.5524 32.9481 34.8021 32.2232C34.8485 32.0867 34.8447 31.9376 34.7895 31.805L34.3124 30.6465ZM32.9109 33.2452L31.7572 33.403C31.6614 33.4156 31.5704 33.4523 31.4911 33.5085C31.2868 33.6536 31.0691 33.7785 30.8416 33.883C30.7536 33.9227 30.6771 33.9837 30.6181 34.0601L29.9067 34.9825C29.447 35.0512 28.9785 35.0512 28.5188 34.9825L27.8074 34.0601C27.7484 33.9837 27.6719 33.9227 27.5838 33.883C27.3564 33.7785 27.1386 33.6527 26.9344 33.5085C26.856 33.4523 26.7641 33.4165 26.6683 33.403L25.5146 33.2452C25.2252 32.8813 24.991 32.4758 24.8206 32.0431L25.2639 30.9659C25.3007 30.8769 25.3152 30.7801 25.3055 30.6833C25.2813 30.4336 25.2813 30.1829 25.3055 29.9332C25.3152 29.8374 25.3007 29.7406 25.2639 29.6506L24.8206 28.5744C24.991 28.1417 25.2252 27.7362 25.5146 27.3723L26.6683 27.2145C26.7641 27.2019 26.855 27.1652 26.9344 27.109C27.1386 26.9638 27.3564 26.839 27.5838 26.7345C27.6719 26.6948 27.7484 26.6338 27.8074 26.5573L28.5188 25.635C28.9785 25.5663 29.447 25.5663 29.9067 25.635L30.6181 26.5573C30.6771 26.6338 30.7536 26.6948 30.8416 26.7345C31.0691 26.839 31.2868 26.9648 31.4911 27.109C31.5695 27.1652 31.6614 27.201 31.7572 27.2145L32.9109 27.3723C33.2003 27.7362 33.4345 28.1417 33.6049 28.5744L33.1616 29.6516C33.1248 29.7406 33.1103 29.8374 33.12 29.9342C33.1442 30.1839 33.1442 30.4346 33.12 30.6843C33.1103 30.7801 33.1248 30.8769 33.1616 30.9669L33.6049 32.0431C33.4345 32.4758 33.2003 32.8813 32.9109 33.2452Z" fill="#879CD8"/>
</svg>
