<svg width="49" height="50" viewBox="0 0 49 50" fill="none" xmlns="http://www.w3.org/2000/svg">
<path fill-rule="evenodd" clip-rule="evenodd" d="M25.5437 22.372C24.6146 22.3691 23.7241 22.7388 23.0689 23.397C22.9779 23.4851 22.9411 23.6147 22.9731 23.7377C23.005 23.8596 23.1008 23.9554 23.2228 23.9874C23.3447 24.0193 23.4754 23.9825 23.5635 23.8916C24.0871 23.365 24.8004 23.0689 25.5427 23.0718C25.7363 23.0718 25.8931 22.915 25.8931 22.7214C25.8931 22.5288 25.7363 22.372 25.5437 22.372Z" fill="#879CD8"/>
<path d="M32.5025 31.2714C32.3719 31.1398 32.1938 31.0653 32.008 31.0662C31.947 31.0672 31.887 31.0759 31.8289 31.0924L31.0692 30.3326C32.1783 28.7773 32.5209 26.8019 31.9993 24.9649C31.4776 23.1269 30.1487 21.6268 28.3872 20.8864V15.4867C28.3872 14.907 27.9169 14.4366 27.3371 14.4366H18.1774C17.8977 14.4356 17.6286 14.5469 17.4321 14.7453L13.9963 18.1812C13.7978 18.3787 13.6865 18.6467 13.6875 18.9265V30.8862C13.6875 31.4659 14.1579 31.9363 14.7376 31.9363H22.4562C24.6281 33.3755 27.461 33.3271 29.5835 31.8163L30.3442 32.578C30.3278 32.6361 30.3191 32.6961 30.3191 32.7561C30.3181 32.9419 30.3926 33.12 30.5243 33.2507L32.2993 35.0257C32.6506 35.3896 33.1713 35.5358 33.6611 35.407C34.1508 35.2783 34.5331 34.897 34.6609 34.4072C34.7886 33.9175 34.6434 33.3968 34.2795 33.0455L32.5025 31.2714ZM17.5367 15.6309V17.9363C17.5367 18.1299 17.3799 18.2867 17.1863 18.2867H14.8809L17.5367 15.6309ZM14.7367 31.2366C14.5431 31.2366 14.3863 31.0798 14.3863 30.8862V18.9855H17.1863C17.766 18.9855 18.2364 18.5151 18.2364 17.9354V15.1354H27.3371C27.5307 15.1354 27.6875 15.2922 27.6875 15.4857V20.6376C24.9262 19.8382 21.9752 21.0093 20.5128 23.4841C19.0513 25.9589 19.4501 29.1092 21.4826 31.1417C21.5174 31.1766 21.5523 31.2037 21.5871 31.2366H14.7367ZM21.9772 30.6462C20.3754 29.0444 19.8963 26.6354 20.7625 24.5429C21.6297 22.4504 23.6709 21.0857 25.9366 21.0857C28.2024 21.0857 30.2436 22.4504 31.1108 24.5429C31.978 26.6354 31.4979 29.0444 29.8961 30.6462C28.8508 31.706 27.4242 32.3022 25.9366 32.3022C24.4491 32.3022 23.0224 31.706 21.9772 30.6462ZM30.3917 31.1407C30.4749 31.0575 30.5494 30.9675 30.6269 30.8814L31.2647 31.5192L30.7691 32.0147L30.1313 31.3769C30.2184 31.2985 30.3084 31.225 30.3917 31.1407ZM33.782 34.5311C33.5052 34.7954 33.0687 34.7954 32.7919 34.5311L31.0169 32.7561L32.007 31.766L33.782 33.541C34.055 33.8149 34.055 34.2582 33.782 34.5311Z" fill="#879CD8"/>
<path fill-rule="evenodd" clip-rule="evenodd" d="M19.6369 17.9354H26.287C26.4805 17.9354 26.6373 17.7786 26.6373 17.585C26.6373 17.3915 26.4805 17.2347 26.287 17.2347H19.6369C19.4433 17.2347 19.2865 17.3915 19.2865 17.585C19.2865 17.7786 19.4433 17.9354 19.6369 17.9354Z" fill="#879CD8"/>
<path fill-rule="evenodd" clip-rule="evenodd" d="M15.7868 21.4361H20.687C20.8806 21.4361 21.0374 21.2793 21.0374 21.0857C21.0374 20.8922 20.8806 20.7354 20.687 20.7354H15.7868C15.5932 20.7354 15.4364 20.8922 15.4364 21.0857C15.4364 21.2793 15.5932 21.4361 15.7868 21.4361Z" fill="#879CD8"/>
<path fill-rule="evenodd" clip-rule="evenodd" d="M18.5868 24.2361H15.7868C15.5932 24.2361 15.4364 24.3929 15.4364 24.5865C15.4364 24.78 15.5932 24.9368 15.7868 24.9368H18.5868C18.7804 24.9368 18.9372 24.78 18.9372 24.5865C18.9372 24.3929 18.7804 24.2361 18.5868 24.2361Z" fill="#879CD8"/>
<path fill-rule="evenodd" clip-rule="evenodd" d="M15.7868 28.4366H18.2364C18.43 28.4366 18.5868 28.2798 18.5868 28.0862C18.5868 27.8926 18.43 27.7359 18.2364 27.7359H15.7868C15.5932 27.7359 15.4364 27.8926 15.4364 28.0862C15.4364 28.2798 15.5932 28.4366 15.7868 28.4366Z" fill="#879CD8"/>
</svg>
