<svg width="16" height="17" viewBox="0 0 16 17" fill="none" xmlns="http://www.w3.org/2000/svg">
<g clip-path="url(#clip0_135_3584)">
<path d="M11.5997 9.6997V3.57646C11.56 3.37884 11.4811 3.18121 11.3628 3.02327L8.67642 0.336835C8.51848 0.178925 8.32086 0.0999756 8.12324 0.0999756H2.79007C2.35556 0.0999756 2 0.45552 2 0.89004V11.9516C2 12.3861 2.35556 12.7417 2.79007 12.7417H5.95074C6.02969 14.5983 7.60978 16.1 9.50618 16.1C11.4815 16.1 13.0616 14.5199 13.0616 12.5445C13.0616 11.3592 12.4692 10.3318 11.5997 9.6997ZM8.71616 1.48244L10.2173 2.98354H8.71616V1.48244ZM2.79007 12.0306V0.929249H7.88635V3.02327C7.88635 3.45778 8.24192 3.81335 8.67642 3.81335H10.7704V9.30492C10.3752 9.14698 9.94069 9.06804 9.46697 9.06804C7.72846 9.06804 6.26704 10.3323 5.95074 12.0311L2.79007 12.0306ZM9.46645 15.3492C7.92561 15.3492 6.70103 14.1246 6.70103 12.5837C6.70103 11.0429 7.92561 9.81838 9.46645 9.81838C11.0073 9.81838 12.2319 11.0429 12.2319 12.5837C12.2319 14.1246 11.0073 15.3492 9.46645 15.3492Z" fill="white"/>
<path d="M10.9287 12.307L10.1387 11.517C9.98074 11.3591 9.74338 11.3591 9.5855 11.517C9.42761 11.6749 9.42761 11.9123 9.5855 12.0702L9.70417 12.1889H8.28202C8.04513 12.1889 7.88672 12.3468 7.88672 12.5841C7.88672 12.821 8.04461 12.9794 8.28202 12.9794H9.70417L9.5855 13.0981C9.42761 13.256 9.42761 13.4934 9.5855 13.6513C9.74338 13.8092 9.98074 13.8092 10.1387 13.6513L10.9287 12.8612C10.9684 12.8215 11.0077 12.7823 11.0077 12.7425C11.0474 12.7028 11.0474 12.6239 11.0474 12.5847C11.0474 12.5454 11.0474 12.466 11.0077 12.4267C11.0077 12.386 10.9684 12.3462 10.9287 12.307Z" fill="white"/>
</g>
<defs>
<clipPath id="clip0_135_3584">
<rect width="16" height="16" fill="white" transform="translate(0 0.0999756)"/>
</clipPath>
</defs>
</svg>
