<svg width="49" height="49" viewBox="0 0 49 49" fill="none" xmlns="http://www.w3.org/2000/svg">
<path d="M24.1968 36.7507C17.5893 36.7507 12.2129 31.3743 12.2129 24.7668C12.2129 18.1592 17.5883 12.7828 24.1968 12.7828C30.8053 12.7828 36.1808 18.1592 36.1808 24.7668C36.1808 31.3743 30.8053 36.7507 24.1968 36.7507ZM24.1968 13.7836C18.141 13.7836 13.2146 18.7109 13.2146 24.7668C13.2146 30.8226 18.141 35.7499 24.1968 35.7499C30.2527 35.7499 35.1791 30.8226 35.1791 24.7668C35.1791 18.7109 30.2527 13.7836 24.1968 13.7836Z" fill="#879CD8"/>
<path d="M26.7916 28.0697L21.601 22.8792L16.7656 27.7155L16.0572 27.007L21.601 21.4632L26.7916 26.6538L31.628 21.8174L32.3355 22.5249L26.7916 28.0697Z" fill="#879CD8"/>
<path d="M32.4826 25.8704H31.4809V22.6716H28.2841V21.6709H32.4826V25.8704Z" fill="#879CD8"/>
</svg>
