<svg width="49" height="50" viewBox="0 0 49 50" fill="none" xmlns="http://www.w3.org/2000/svg">
<path d="M32.6192 35.3365H15.7747C14.6124 35.3356 13.6706 34.3929 13.6687 33.2305V21.6501C13.6697 20.4877 14.6124 19.546 15.7747 19.5441H32.6192C33.7816 19.5451 34.7233 20.4877 34.7253 21.6501V33.2314C34.7243 34.3938 33.7816 35.3356 32.6192 35.3365ZM15.7747 20.2467C14.9995 20.2467 14.3714 20.8749 14.3714 21.6501V33.2314C14.3714 34.0067 14.9995 34.6348 15.7747 34.6348H32.6192C33.3945 34.6348 34.0226 34.0067 34.0226 33.2314V21.6501C34.0226 20.8749 33.3945 20.2467 32.6192 20.2467H15.7747Z" fill="#879CD8"/>
<path d="M32.6189 35.4611H15.7744C14.5452 35.4602 13.5444 34.4594 13.5435 33.2302V21.6499C13.5444 20.4207 14.5452 19.42 15.7744 19.419H32.6189C33.848 19.42 34.8488 20.4207 34.8498 21.6499V33.2302C34.8488 34.4604 33.848 35.4602 32.6189 35.4611ZM15.7744 19.6697C14.6836 19.6706 13.7951 20.5591 13.7941 21.6499V33.2302C13.7951 34.322 14.6836 35.2095 15.7744 35.2105H32.6189C33.7096 35.2095 34.5981 34.321 34.5991 33.2302V21.6499C34.5981 20.5582 33.7096 19.6706 32.6189 19.6697H15.7744ZM32.6189 34.7604H15.7744C14.9314 34.7604 14.2452 34.0742 14.2452 33.2312V21.6499C14.2452 20.8069 14.9314 20.1217 15.7744 20.1217H32.6189C33.4619 20.1217 34.1481 20.8069 34.1481 21.6499V33.2302C34.1481 34.0742 33.4619 34.7604 32.6189 34.7604ZM15.7744 20.3723C15.0688 20.3723 14.4958 20.9453 14.4958 21.6509V33.2312C14.4958 33.9368 15.0698 34.5107 15.7744 34.5107H32.6189C33.3244 34.5107 33.8974 33.9368 33.8974 33.2312V21.6499C33.8974 20.9443 33.3235 20.3714 32.6189 20.3714L15.7744 20.3723Z" fill="#879CD8"/>
<path d="M14.0201 24.4579C13.8265 24.4579 13.6688 24.3011 13.6688 24.1065V16.386C13.6465 15.633 14.2388 15.0049 14.9918 14.9826C15.0189 14.9816 15.0451 14.9816 15.0722 14.9826H21.7397C21.8607 14.9826 21.9729 15.0445 22.0368 15.1471L23.688 17.7894H29.8106C30.9314 17.7468 31.8741 18.6207 31.9167 19.7415C31.9186 19.7928 31.9186 19.8441 31.9167 19.8954C31.9167 20.089 31.7599 20.2467 31.5653 20.2467C31.3718 20.2467 31.214 20.0899 31.214 19.8954C31.214 18.5075 29.8677 18.492 29.8106 18.492H23.4934C23.3725 18.492 23.2602 18.4301 23.1963 18.3275L21.5451 15.6853H15.0722C14.7082 15.662 14.3937 15.9379 14.3705 16.3018C14.3685 16.3298 14.3685 16.3589 14.3705 16.3869V24.1075C14.3714 24.3011 14.2137 24.4579 14.0201 24.4579Z" fill="#879CD8"/>
<path d="M14.0198 24.5834C13.7575 24.5834 13.5436 24.3705 13.5436 24.1073V16.3857C13.532 15.9928 13.6753 15.6144 13.9482 15.325C14.2211 15.0356 14.5899 14.8691 14.9877 14.8575C15.0167 14.8575 15.0477 14.8575 15.0757 14.8575H21.7394C21.9049 14.8575 22.0549 14.9417 22.143 15.0811L23.7583 17.6652H29.8113C30.3852 17.641 30.9311 17.8472 31.354 18.2382C31.776 18.6292 32.0209 19.1615 32.0422 19.7364C32.0441 19.7916 32.0441 19.8458 32.0422 19.901C32.0422 20.1594 31.8283 20.3723 31.566 20.3723C31.3037 20.3723 31.0898 20.1594 31.0898 19.8961C31.0898 18.6312 29.8635 18.6166 29.8113 18.6166H23.4941C23.3286 18.6166 23.1786 18.5334 23.0905 18.394L21.4761 15.8099H15.0719C14.9199 15.7944 14.7834 15.8466 14.676 15.9415C14.5686 16.0354 14.5047 16.166 14.495 16.3083C14.4931 16.3315 14.4931 16.3538 14.495 16.377L14.496 24.1073C14.496 24.3705 14.2821 24.5834 14.0198 24.5834ZM15.0322 15.1062C15.0196 15.1062 15.009 15.1062 14.9973 15.1072C14.6654 15.1169 14.3586 15.2553 14.1321 15.4963C13.9046 15.7373 13.7856 16.0509 13.7953 16.3809V24.1063C13.7953 24.2302 13.8969 24.3318 14.0208 24.3318C14.1456 24.3318 14.2463 24.2302 14.2463 24.1063V16.3848C14.2443 16.3596 14.2443 16.3248 14.2473 16.2909C14.2608 16.0828 14.3547 15.8912 14.5124 15.7518C14.6692 15.6134 14.8744 15.5408 15.0815 15.5582H21.6165L23.3044 18.2595C23.346 18.3263 23.4177 18.365 23.496 18.365H29.8132C29.8761 18.365 31.3415 18.3824 31.3415 19.8942C31.3415 20.0181 31.4431 20.1197 31.567 20.1197C31.6909 20.1197 31.7925 20.0181 31.7925 19.8942C31.7944 19.84 31.7944 19.7935 31.7925 19.7442C31.7731 19.2361 31.5573 18.7657 31.1837 18.4202C30.8111 18.0737 30.3242 17.8937 29.8171 17.914H23.6209L21.932 15.2127C21.8913 15.1469 21.8178 15.1062 21.7404 15.1062H15.0728C15.0583 15.1072 15.0448 15.1062 15.0322 15.1062Z" fill="#879CD8"/>
<path d="M24.197 32.1784C21.4832 32.1784 19.2842 29.9785 19.2842 27.2656C19.2842 24.5527 21.4841 22.3528 24.197 22.3528C26.9099 22.3528 29.1098 24.5527 29.1098 27.2656C29.1069 29.9775 26.9099 32.1755 24.197 32.1784ZM24.197 23.0545C21.8713 23.0545 19.9859 24.9399 19.9859 27.2656C19.9859 29.5914 21.8713 31.4767 24.197 31.4767C26.5228 31.4767 28.4081 29.5914 28.4081 27.2656C28.4062 24.9408 26.5218 23.0564 24.197 23.0545Z" fill="#879CD8"/>
<path d="M24.1968 32.304C21.419 32.304 19.1591 30.0441 19.1591 27.2654C19.1591 24.4876 21.419 22.2277 24.1968 22.2277C26.9745 22.2277 29.2344 24.4876 29.2344 27.2654C29.2325 30.0402 26.9726 32.3011 24.1968 32.304ZM24.1968 22.4774C21.5565 22.4774 19.4088 24.6251 19.4088 27.2644C19.4088 29.9047 21.5565 32.0524 24.1968 32.0524C26.8342 32.0495 28.9818 29.9018 28.9847 27.2644C28.9847 24.6251 26.8371 22.4774 24.1968 22.4774ZM24.1968 31.6013C21.8052 31.6013 19.8608 29.656 19.8608 27.2654C19.8608 24.8748 21.8062 22.9294 24.1968 22.9294C26.5854 22.9323 28.5308 24.8777 28.5327 27.2654C28.5337 29.656 26.5883 31.6013 24.1968 31.6013ZM24.1968 23.1791C21.9436 23.1791 20.1105 25.0122 20.1105 27.2654C20.1105 29.5185 21.9436 31.3516 24.1968 31.3516C26.4499 31.3516 28.283 29.5185 28.283 27.2654C28.2801 25.0141 26.448 23.182 24.1968 23.1791Z" fill="#879CD8"/>
<path d="M24.197 27.616C23.6153 27.616 23.144 27.1446 23.144 26.563V25.1596C23.144 24.5779 23.6153 24.1065 24.197 24.1065C24.7787 24.1065 25.25 24.5779 25.25 25.1596V26.563C25.25 27.1446 24.7787 27.616 24.197 27.616ZM24.197 24.8092C24.0034 24.8092 23.8456 24.966 23.8456 25.1605V26.5639C23.8456 26.7575 24.0024 26.9152 24.197 26.9152C24.3915 26.9152 24.5483 26.7585 24.5483 26.5639V25.1596C24.5483 24.966 24.3906 24.8092 24.197 24.8092Z" fill="#879CD8"/>
<path d="M24.1967 27.7416C23.5473 27.7416 23.0188 27.2121 23.0188 26.5627V25.1593C23.0188 24.5099 23.5473 23.9815 24.1967 23.9815C24.8461 23.9815 25.3746 24.5099 25.3746 25.1593V26.5627C25.3746 27.2121 24.8461 27.7416 24.1967 27.7416ZM24.1967 24.2321C23.6857 24.2321 23.2695 24.6473 23.2695 25.1593V26.5627C23.2695 27.0737 23.6857 27.4909 24.1967 27.4909C24.7077 27.4909 25.1239 27.0747 25.1239 26.5627V25.1593C25.1249 24.6483 24.7087 24.2321 24.1967 24.2321ZM24.1967 27.0389C23.9344 27.0389 23.7205 26.826 23.7205 26.5627V25.1593C23.7205 24.8961 23.9335 24.6831 24.1967 24.6831C24.459 24.6831 24.6729 24.8961 24.6729 25.1593V26.5627C24.6729 26.826 24.459 27.0389 24.1967 27.0389ZM24.1967 24.9338C24.0728 24.9338 23.9712 25.0354 23.9712 25.1593V26.5627C23.9712 26.6866 24.0728 26.7882 24.1967 26.7882C24.3216 26.7882 24.4222 26.6866 24.4222 26.5627V25.1593C24.4232 25.0354 24.3216 24.9338 24.1967 24.9338Z" fill="#879CD8"/>
<path d="M24.197 30.4237C23.6153 30.4237 23.144 29.9524 23.144 29.3707C23.144 28.789 23.6153 28.3177 24.197 28.3177C24.7787 28.3177 25.25 28.789 25.25 29.3707C25.25 29.9524 24.7787 30.4237 24.197 30.4237ZM24.197 29.0203C24.0034 29.0203 23.8456 29.1771 23.8456 29.3717C23.8456 29.5652 24.0024 29.723 24.197 29.723C24.3915 29.723 24.5483 29.5662 24.5483 29.3717C24.5483 29.1771 24.3906 29.0203 24.197 29.0203Z" fill="#879CD8"/>
<path d="M24.1967 30.5493C23.5473 30.5493 23.0188 30.0199 23.0188 29.3705C23.0188 28.721 23.5473 28.1926 24.1967 28.1926C24.8461 28.1926 25.3746 28.721 25.3746 29.3705C25.3746 30.0199 24.8461 30.5493 24.1967 30.5493ZM24.1967 28.4432C23.6857 28.4432 23.2695 28.8585 23.2695 29.3705C23.2695 29.8824 23.6857 30.2986 24.1967 30.2986C24.7077 30.2986 25.1239 29.8824 25.1239 29.3705C25.1239 28.8585 24.7087 28.4432 24.1967 28.4432ZM24.1967 29.8466C23.9344 29.8466 23.7205 29.6337 23.7205 29.3705C23.7205 29.1072 23.9335 28.8943 24.1967 28.8943C24.459 28.8943 24.6729 29.1072 24.6729 29.3705C24.6729 29.6337 24.459 29.8466 24.1967 29.8466ZM24.1967 29.1449C24.0728 29.1449 23.9712 29.2466 23.9712 29.3705C23.9712 29.4943 24.0728 29.596 24.1967 29.596C24.3216 29.596 24.4222 29.4943 24.4222 29.3705C24.4232 29.2466 24.3216 29.1449 24.1967 29.1449Z" fill="#879CD8"/>
</svg>
