<svg xmlns="http://www.w3.org/2000/svg" width="37" height="33" viewBox="0 0 37 33">
    <path d="M36.0987 13.4037L19.2103 1.0367C18.8849 0.792616 18.4432 0.792616 18.1177 1.0367L1.22939 13.4037C0.822583 13.7059 0.729598 14.287 1.0318 14.6938C1.334 15.1006 1.91515 15.1936 2.32196 14.8914L18.664 2.93127L35.0061 14.8914C35.1688 15.0077 35.3664 15.0658 35.5524 15.0658C35.843 15.0658 36.1219 14.9379 36.2963 14.6822C36.5985 14.287 36.5055 13.7059 36.0987 13.4037Z"/>
    <path d="M31.6238 15.112C31.1123 15.112 30.6939 15.5304 30.6939 16.0418V30.7799H23.29V22.7367C23.29 20.1796 21.2095 18.1107 18.664 18.1107C16.1185 18.1107 14.038 20.1913 14.038 22.7367V30.7799H6.62248V16.0302C6.62248 15.5188 6.20405 15.1003 5.69263 15.1003C5.18122 15.1003 4.76279 15.5188 4.76279 16.0302V31.6865C4.76279 32.1979 5.18122 32.6163 5.69263 32.6163H14.9446C15.4328 32.6163 15.828 32.2444 15.8628 31.7679C15.8628 31.7446 15.8628 31.7214 15.8628 31.6981V22.7251C15.8628 21.1908 17.1065 19.9472 18.6408 19.9472C20.175 19.9472 21.4187 21.1908 21.4187 22.7251V31.6981C21.4187 31.7214 21.4187 31.7446 21.4187 31.7679C21.4535 32.2444 21.8487 32.628 22.3369 32.628H31.5889C32.1003 32.628 32.5187 32.2095 32.5187 31.6981V16.0302C32.542 15.5188 32.1352 15.112 31.6238 15.112Z"/>
  </svg>