<svg width="34" height="34" viewBox="0 0 34 34" fill="none" xmlns="http://www.w3.org/2000/svg">
<g clip-path="url(#clip0_1331_71664)">
<path d="M31.61 0H4.95999C3.98999 0 3.20999 0.78 3.20999 1.75V9.7H6.70999V3.5H29.86V29.9H6.70999V23.71H3.20999V31.66C3.20999 32.63 3.98999 33.41 4.95999 33.41H31.61C32.58 33.41 33.36 32.63 33.36 31.66V1.75C33.36 0.78 32.58 0 31.61 0Z" fill="white"/>
<path d="M14.08 25.2192L23.64 16.7092L14.08 8.19922V13.2092H1.28C0.57 13.2092 0 13.7892 0 14.4892V18.9292C0 19.6392 0.58 20.2092 1.28 20.2092H14.07V25.2192H14.08Z" fill="white"/>
</g>
<defs>
<clipPath id="clip0_1331_71664">
<rect width="33.36" height="33.41" fill="white"/>
</clipPath>
</defs>
</svg>
