<svg width="49" height="49" viewBox="0 0 49 49" fill="none" xmlns="http://www.w3.org/2000/svg">
<path d="M32.5518 16.9447V14.3731C32.5518 14.196 32.4076 14.0518 32.2305 14.0518H17.3642C16.5212 14.0528 15.8389 14.7361 15.8379 15.5781V24.3372H16.4806V22.7305H18.4095V27.2301H16.4816V24.9798H15.8389V33.0149C15.8399 33.9024 16.559 34.6206 17.4455 34.6216H21.9451V33.9789H17.4455C16.9132 33.9789 16.4816 33.5472 16.4816 33.0149C16.4816 32.4826 16.9132 32.0509 17.4455 32.0509H31.523C31.1813 32.6481 31.1813 33.3817 31.523 33.9799H22.5877V34.6225H32.2305C32.4076 34.6225 32.5518 34.4793 32.5518 34.3012C32.5518 34.1996 32.5044 34.1047 32.4231 34.0437C31.8549 33.6179 31.7398 32.8117 32.1656 32.2435C32.2392 32.1458 32.3253 32.0596 32.4231 31.9861C32.5034 31.9251 32.5518 31.8303 32.5518 31.7296V17.5874H31.9091V31.4083H19.0522V14.6944H31.9091V16.9447H32.5518ZM16.4816 22.0869V17.5874H18.4105V22.0869H16.4816ZM18.4095 27.8727V29.158H16.4816V27.8727H18.4095ZM17.4455 31.4083C17.0981 31.4083 16.7593 31.5206 16.4816 31.7306V29.8017H18.4105V31.4083H17.4455ZM18.4095 16.9447H16.4816V15.5781C16.4825 15.0903 16.8774 14.6944 17.3652 14.6944H18.4095V16.9447Z" fill="#879CD8"/>
<path d="M29.9812 24.8017C30.3364 24.8017 30.6238 24.5133 30.6238 24.1591V22.5873C30.6238 22.2321 30.3354 21.9446 29.9812 21.9446H29.5234C29.473 21.8024 29.415 21.662 29.3491 21.5256L29.6734 21.2013C29.924 20.9497 29.924 20.5432 29.6734 20.2925L28.5623 19.1814C28.3106 18.9308 27.9041 18.9308 27.6535 19.1814L27.3292 19.5057C27.1928 19.4408 27.0524 19.3827 26.9102 19.3314V18.8737C26.9102 18.5184 26.6217 18.231 26.2675 18.231H24.6957C24.3405 18.231 24.0531 18.5194 24.0531 18.8737V19.3314C23.9108 19.3818 23.7704 19.4398 23.634 19.5057L23.3097 19.1814C23.0581 18.9308 22.6516 18.9308 22.4009 19.1814L21.2898 20.2925C21.0392 20.5442 21.0392 20.9507 21.2898 21.2013L21.6141 21.5256C21.5492 21.662 21.4912 21.8024 21.4399 21.9446H20.9821C20.6269 21.9446 20.3394 22.2331 20.3394 22.5873V24.1591C20.3394 24.5143 20.6278 24.8017 20.9821 24.8017H21.4399C21.4902 24.944 21.5483 25.0844 21.6141 25.2208L21.2898 25.5451C21.0392 25.7967 21.0392 26.2032 21.2898 26.4539L22.4009 27.565C22.6526 27.8156 23.0591 27.8156 23.3097 27.565L23.634 27.2407C23.7704 27.3056 23.9108 27.3636 24.0531 27.4149V27.8727C24.0531 28.2279 24.3415 28.5154 24.6957 28.5154H26.2675C26.6227 28.5154 26.9102 28.227 26.9102 27.8727V27.4149C27.0524 27.3646 27.1928 27.3065 27.3292 27.2407L27.6535 27.565C27.9051 27.8156 28.3116 27.8156 28.5623 27.565L29.6734 26.4539C29.924 26.2022 29.924 25.7957 29.6734 25.5451L29.3491 25.2208C29.414 25.0844 29.4721 24.944 29.5234 24.8017H29.9812ZM29.2688 26.0493L28.1577 27.1604C28.1297 27.1885 28.0842 27.1885 28.0571 27.1604L26.2181 25.3224C26.1417 25.246 26.0275 25.2189 25.9249 25.2537C24.7286 25.6564 23.4317 25.0127 23.0291 23.8165C22.9342 23.5358 22.8955 23.2396 22.9139 22.9444L23.1617 22.6967L24.1731 23.8474C24.2273 23.9094 24.3057 23.9442 24.3879 23.9442H25.7671C25.9249 23.9442 26.0526 23.8165 26.0526 23.6587V22.2795C26.0526 22.1973 26.0168 22.1189 25.9559 22.0647L24.8051 21.0533L25.0528 20.8055C26.313 20.7271 27.3989 21.6843 27.4773 22.9444C27.4957 23.2396 27.457 23.5358 27.3621 23.8165C27.3273 23.9191 27.3544 24.0333 27.4309 24.1097L29.2698 25.9486C29.2969 25.9767 29.2969 26.0222 29.2688 26.0493ZM29.3153 24.2297C29.1885 24.2297 29.0772 24.313 29.0414 24.434C29.0056 24.554 28.9639 24.6721 28.9165 24.7872L27.9554 23.8261C28.3639 22.3018 27.4589 20.7348 25.9346 20.3264C25.5958 20.2354 25.2435 20.2083 24.8941 20.2451C24.8293 20.2519 24.7683 20.2809 24.7218 20.3274L24.1847 20.8645C24.0734 20.9758 24.0734 21.1568 24.1847 21.2681C24.1886 21.272 24.1934 21.2768 24.1982 21.2807L25.4806 22.4073V23.3722H24.5157L23.3891 22.0898C23.2846 21.9717 23.1046 21.9592 22.9855 22.0637C22.9807 22.0676 22.9768 22.0724 22.972 22.0763L22.4348 22.6134C22.3884 22.6599 22.3593 22.7209 22.3525 22.7857C22.1861 24.3556 23.3243 25.7628 24.8932 25.9283C25.2416 25.9651 25.5948 25.938 25.9336 25.847L26.8947 26.8081C26.7795 26.8555 26.6614 26.8971 26.5414 26.933C26.4204 26.9688 26.3372 27.0801 26.3372 27.2069V27.8727C26.3372 27.9124 26.3053 27.9444 26.2656 27.9444H24.6938C24.6541 27.9444 24.6222 27.9124 24.6222 27.8727V27.2069C24.6222 27.0801 24.5389 26.9688 24.4179 26.933C24.1731 26.8604 23.9369 26.7616 23.7124 26.6407C23.6011 26.5807 23.4636 26.6 23.3746 26.69L22.9032 27.1604C22.8752 27.1885 22.8297 27.1885 22.8026 27.1604L21.6915 26.0493C21.6634 26.0212 21.6634 25.9757 21.6915 25.9486L22.1628 25.4773C22.2519 25.3883 22.2722 25.2508 22.2122 25.1395C22.0903 24.915 21.9925 24.6788 21.9199 24.434C21.8841 24.313 21.7728 24.2297 21.646 24.2297H20.9801C20.9404 24.2297 20.9085 24.1978 20.9085 24.1581V22.5863C20.9085 22.5466 20.9404 22.5147 20.9801 22.5147H21.646C21.7728 22.5147 21.8841 22.4315 21.9199 22.3105C21.9925 22.0656 22.0912 21.8295 22.2122 21.6049C22.2722 21.4936 22.2529 21.3562 22.1628 21.2671L21.6915 20.7958C21.6634 20.7677 21.6634 20.7222 21.6915 20.6951L22.8026 19.5841C22.8307 19.556 22.8761 19.556 22.9032 19.5841L23.3746 20.0544C23.4636 20.1435 23.6011 20.1638 23.7124 20.1038C23.9369 19.9818 24.1731 19.8841 24.4179 19.8115C24.5389 19.7757 24.6222 19.6644 24.6222 19.5376V18.8717C24.6222 18.832 24.6541 18.8001 24.6938 18.8001H26.2656C26.3053 18.8001 26.3372 18.832 26.3372 18.8717V19.5376C26.3372 19.6644 26.4204 19.7757 26.5414 19.8115C26.7863 19.8841 27.0224 19.9828 27.247 20.1038C27.3583 20.1638 27.4957 20.1444 27.5847 20.0544L28.0561 19.5841C28.0842 19.556 28.1296 19.556 28.1567 19.5841L29.2678 20.6951C29.2959 20.7232 29.2959 20.7687 29.2678 20.7958L28.7965 21.2671C28.7075 21.3562 28.6871 21.4936 28.7471 21.6049C28.8691 21.8295 28.9668 22.0656 29.0394 22.3105C29.0752 22.4315 29.1865 22.5147 29.3133 22.5147H29.9792C30.0189 22.5147 30.0508 22.5466 30.0508 22.5863V24.1581C30.0508 24.1978 30.0189 24.2297 29.9792 24.2297H29.3153Z" fill="#879CD8"/>
<path d="M31.9091 16.9447V17.5874H32.5518V16.9447L32.1095 16.9196L31.9091 16.9447Z" fill="#879CD8"/>
<path d="M16.4806 24.3372H15.8379L15.8379 24.9798H16.4805L16.4806 24.3372Z" fill="#879CD8"/>
<path d="M22.5877 33.9799L21.9451 33.9789V34.6216L22.5877 34.6225V33.9799Z" fill="#879CD8"/>
</svg>
