<svg width="49" height="49" viewBox="0 0 49 49" fill="none" xmlns="http://www.w3.org/2000/svg">
<path d="M34.4378 17.7733H13.9561C13.7209 17.7733 13.5293 17.9756 13.5293 18.2243V30.9525C13.5293 31.2022 13.72 31.4035 13.9561 31.4035H34.4368C34.672 31.4035 34.8637 31.2013 34.8637 30.9525V18.2253C34.8637 17.9756 34.673 17.7733 34.4378 17.7733ZM24.8377 24.7041C24.4467 24.9896 23.9211 24.9886 23.5311 24.7021L15.3198 18.6763H33.0712L24.8377 24.7041ZM20.553 23.6152L14.3829 29.8927V19.0876L20.553 23.6152ZM21.2682 24.1398L23.0452 25.4435C23.7208 25.9391 24.647 25.94 25.3235 25.4464L27.0841 24.1572L33.319 30.5015H15.0159L21.2682 24.1398ZM27.7993 23.6336L34.01 19.0867V29.9537L27.7993 23.6336Z" fill="#879CD8"/>
</svg>
