<svg width="49" height="49" viewBox="0 0 49 49" fill="none" xmlns="http://www.w3.org/2000/svg">
<path d="M32.0648 22.6378H31.0631V15.7815C31.0631 15.3808 30.7369 15.0537 30.3362 15.0537C29.9355 15.0537 29.6094 15.3808 29.6094 15.7815C29.6094 16.1822 29.9355 16.5084 30.3362 16.5084V17.5101H15.6036C14.6502 17.5101 13.875 16.7349 13.875 15.7815C13.875 14.8282 14.6502 14.052 15.6036 14.052H30.3353C31.2886 14.052 32.0638 14.8272 32.0638 15.7815L32.0648 22.6378ZM15.6036 15.0537C15.2029 15.0537 14.8767 15.3808 14.8767 15.7815C14.8767 16.1822 15.2029 16.5084 15.6036 16.5084H28.7683C28.6657 16.2877 28.6076 16.0409 28.6076 15.7815C28.6076 15.5212 28.6657 15.2753 28.7683 15.0537H15.6036Z" fill="#879CD8"/>
<path d="M32.0648 34.6963H16.3304V17.0088H17.3322V33.6945H31.0631V26.1104H32.0648V34.6963Z" fill="#879CD8"/>
<path d="M26.1415 32.2418H23.6967V29.797L31.5692 21.9254C32.2428 21.2528 33.3384 21.2508 34.014 21.9254C34.6876 22.5991 34.6876 23.6956 34.014 24.3693L26.1415 32.2418ZM24.6984 31.2401H25.7272L33.3065 23.6608C33.5901 23.3772 33.5901 22.9165 33.3065 22.6329C33.0229 22.3494 32.5622 22.3494 32.2777 22.6329L24.6984 30.2112V31.2401Z" fill="#879CD8"/>
<path d="M25.613 28.5886L24.9048 29.297L26.6413 31.033L27.3495 30.3246L25.613 28.5886Z" fill="#879CD8"/>
<path d="M31.409 22.7924L30.7004 23.5005L32.4362 25.2373L33.1447 24.5291L31.409 22.7924Z" fill="#879CD8"/>
<path d="M24.8089 21.4183H18.6756V22.42H24.8089V21.4183Z" fill="#879CD8"/>
<path d="M29.8282 23.8737H18.6756V24.8755H29.8282V23.8737Z" fill="#879CD8"/>
<path d="M27.3727 26.3282H18.6756V27.3299H27.3727V26.3282Z" fill="#879CD8"/>
<path d="M25.0654 28.7846H18.6756V29.7863H25.0654V28.7846Z" fill="#879CD8"/>
</svg>
