<svg width="303" height="72" viewBox="0 0 303 72" fill="none" xmlns="http://www.w3.org/2000/svg">
<path d="M5.76825 59.8685V64.663H5V53.6602H7.62438C8.99082 53.6602 9.99952 53.9119 10.6534 54.4183C11.3073 54.9217 11.6328 55.6798 11.6328 56.6955C11.6328 57.4331 11.4393 58.0537 11.0493 58.5601C10.6593 59.0664 10.067 59.4294 9.27525 59.6519L12.2691 64.663H11.3513L8.50992 59.8685H5.76825ZM5.76825 59.2069H7.87069C8.80022 59.2069 9.52156 58.9991 10.0347 58.5864C10.5479 58.1737 10.803 57.5619 10.803 56.7541C10.803 55.9169 10.5508 55.3052 10.0494 54.9246C9.54795 54.5441 8.72691 54.3539 7.59212 54.3539H5.76825V59.2069Z" fill="white"/>
<path d="M17.295 64.8117C16.1045 64.8117 15.175 64.4459 14.5093 63.7141C13.8437 62.9823 13.5094 61.9549 13.5094 60.6377C13.5094 59.3323 13.832 58.2873 14.4741 57.5029C15.1163 56.7184 15.9843 56.3262 17.0751 56.3262C18.0398 56.3262 18.8022 56.6628 19.3593 57.336C19.9164 58.0092 20.195 58.9196 20.195 60.0757V60.6787H14.2953C14.3041 61.8027 14.568 62.6603 15.0811 63.2516C15.5972 63.8429 16.3361 64.1385 17.295 64.1385C17.7612 64.1385 18.1717 64.1063 18.5295 64.0419C18.8813 63.9775 19.33 63.837 19.8754 63.6204V64.2966C19.415 64.4985 18.9869 64.6332 18.594 64.7064C18.1981 64.7766 17.7671 64.8117 17.295 64.8117ZM17.0751 56.9877C16.2863 56.9877 15.6529 57.2482 15.175 57.7663C14.697 58.2844 14.4184 59.0337 14.3393 60.0114H19.4033C19.4033 59.063 19.198 58.3224 18.7846 57.7868C18.3741 57.2541 17.8052 56.9877 17.0751 56.9877Z" fill="white"/>
<path d="M28.8481 56.4842V57.0023L27.1533 57.1077C27.6049 57.6697 27.8306 58.2873 27.8306 58.9576C27.8306 59.745 27.5667 60.3831 27.0419 60.8719C26.517 61.3607 25.8103 61.6066 24.9277 61.6066C24.5553 61.6066 24.2943 61.592 24.1448 61.5627C23.8486 61.7178 23.6228 61.9022 23.4674 62.113C23.312 62.3237 23.2329 62.5462 23.2329 62.7833C23.2329 63.0438 23.3326 63.2341 23.5319 63.3541C23.7284 63.4741 24.0627 63.5355 24.5318 63.5355H25.9628C26.8513 63.5355 27.5316 63.7141 28.0066 64.0741C28.4787 64.4342 28.7133 64.964 28.7133 65.6664C28.7133 66.5299 28.3614 67.1944 27.6635 67.6656C26.9627 68.134 25.9628 68.3681 24.6667 68.3681C23.6346 68.3681 22.8399 68.1691 22.2711 67.7739C21.7051 67.3788 21.4236 66.8256 21.4236 66.1172C21.4236 65.5552 21.5996 65.0898 21.9485 64.7181C22.2975 64.3463 22.7725 64.0946 23.3707 63.96C23.1244 63.8546 22.9279 63.7053 22.7784 63.5121C22.6288 63.3189 22.5555 63.0965 22.5555 62.8477C22.5555 62.3003 22.9044 61.8203 23.6023 61.4017C23.1244 61.2056 22.752 60.8983 22.4851 60.4797C22.2183 60.0611 22.0863 59.5811 22.0863 59.0396C22.0863 58.2229 22.3473 57.5673 22.8663 57.0726C23.3853 56.5779 24.0891 56.332 24.9717 56.332C25.5083 56.332 25.9276 56.3847 26.2238 56.4901H28.8481V56.4842ZM22.2154 66.047C22.2154 67.171 23.0511 67.733 24.7254 67.733C26.8747 67.733 27.9538 67.048 27.9538 65.6782C27.9538 65.1864 27.7867 64.8322 27.4495 64.6098C27.1122 64.3902 26.5668 64.279 25.8132 64.279H24.4732C22.969 64.279 22.2154 64.8674 22.2154 66.047ZM22.8429 59.0337C22.8429 59.666 23.0364 60.1548 23.4205 60.506C23.8046 60.8544 24.3207 61.03 24.9629 61.03C25.6461 61.03 26.171 60.8573 26.5346 60.5119C26.8982 60.1665 27.08 59.663 27.08 59.0074C27.08 58.3107 26.8923 57.7868 26.5199 57.4385C26.1446 57.0901 25.6197 56.9145 24.9482 56.9145C24.2943 56.9145 23.7812 57.1019 23.4059 57.4736C23.0305 57.8453 22.8429 58.3663 22.8429 59.0337Z" fill="white"/>
<path d="M31.1793 56.4844V61.7824C31.1793 62.6049 31.3523 63.202 31.6983 63.5767C32.0443 63.9484 32.5809 64.1357 33.3111 64.1357C34.2875 64.1357 35.003 63.8899 35.4633 63.3981C35.9237 62.9064 36.1524 62.1073 36.1524 60.9979V56.4814H36.8914V64.6597H36.258L36.1231 63.5298H36.0791C35.5454 64.3816 34.5983 64.809 33.2378 64.809C31.3728 64.809 30.4404 63.8137 30.4404 61.8204V56.4785H31.1793V56.4844Z" fill="white"/>
<path d="M40.3837 52.9531H39.6359V64.6614H40.3837V52.9531Z" fill="white"/>
<path d="M48.1014 64.6625L47.9137 63.3687H47.8522C47.4387 63.8956 47.0165 64.2673 46.5825 64.4868C46.1456 64.7064 45.6324 64.8147 45.0401 64.8147C44.2367 64.8147 43.6092 64.6098 43.1635 64.1971C42.7148 63.7844 42.492 63.2165 42.492 62.4877C42.492 61.6915 42.8233 61.071 43.4919 60.629C44.1575 60.187 45.1193 59.9528 46.3831 59.9294L47.9431 59.8855V59.344C47.9431 58.5654 47.7847 57.98 47.468 57.5848C47.1513 57.1897 46.6411 56.9906 45.9374 56.9906C45.1779 56.9906 44.3921 57.2014 43.5769 57.6229L43.2983 56.976C44.1986 56.5545 45.087 56.3438 45.9667 56.3438C46.8669 56.3438 47.5384 56.5779 47.9841 57.0433C48.4269 57.5087 48.6497 58.2376 48.6497 59.224V64.6654H48.1014V64.6625ZM45.087 64.1356C45.9608 64.1356 46.6499 63.8868 47.1572 63.3863C47.6616 62.8857 47.9137 62.195 47.9137 61.3051V60.5002L46.4828 60.5617C45.3304 60.6173 44.5094 60.7958 44.0226 61.1002C43.5329 61.4046 43.2866 61.8759 43.2866 62.5199C43.2866 63.0321 43.445 63.4302 43.7587 63.7141C44.0695 63.9922 44.5152 64.1356 45.087 64.1356Z" fill="white"/>
<path d="M54.3061 56.3222C54.8984 56.3222 55.4115 56.4305 55.8455 56.6471C56.2766 56.8637 56.6636 57.2325 57.0067 57.7535H57.0507C57.0214 57.1213 57.0067 56.5007 57.0067 55.8948V52.9531H57.7456V64.6614H57.2559L57.0683 63.4115H57.0067C56.3821 64.3453 55.4907 64.8107 54.3237 64.8107C53.1918 64.8107 52.3268 64.4594 51.7315 63.7569C51.1334 63.0544 50.8343 62.03 50.8343 60.6864C50.8343 59.2727 51.1304 58.1896 51.7228 57.4432C52.3151 56.6968 53.1742 56.3222 54.3061 56.3222ZM54.3061 57.0013C53.4117 57.0013 52.7402 57.3145 52.2916 57.9408C51.84 58.5672 51.6172 59.4776 51.6172 60.6718C51.6172 62.99 52.5203 64.1492 54.3237 64.1492C55.2473 64.1492 55.9276 63.8799 56.3587 63.3442C56.7897 62.8086 57.0067 61.9217 57.0067 60.6894V60.5606C57.0067 59.2961 56.7956 58.3858 56.3704 57.8325C55.9423 57.2793 55.2561 57.0013 54.3061 57.0013Z" fill="white"/>
<path d="M67.2726 60.5607C67.2726 61.8954 66.9471 62.9374 66.302 63.6868C65.654 64.4361 64.7596 64.8108 63.619 64.8108C62.9006 64.8108 62.2672 64.6381 61.7189 64.2927C61.1705 63.9473 60.7512 63.4497 60.4609 62.8028C60.1706 62.1559 60.024 61.4095 60.024 60.5607C60.024 59.2259 60.3495 58.1868 60.9975 57.4404C61.6455 56.6969 62.537 56.3223 63.6659 56.3223C64.7919 56.3223 65.6745 56.6999 66.3137 57.455C66.9529 58.2102 67.2726 59.2464 67.2726 60.5607ZM60.804 60.5607C60.804 61.6847 61.0532 62.5598 61.5458 63.1921C62.0414 63.8214 62.7393 64.1375 63.6453 64.1375C64.5514 64.1375 65.2493 63.8214 65.7449 63.1921C66.2404 62.5628 66.4867 61.6847 66.4867 60.5607C66.4867 59.4308 66.2375 58.5556 65.7361 57.9351C65.2346 57.3116 64.5338 57.0013 63.6278 57.0013C62.7217 57.0013 62.0267 57.3116 61.537 57.9292C61.0474 58.5498 60.804 59.4279 60.804 60.5607Z" fill="white"/>
<path d="M72.7676 56.3262C73.1136 56.3262 73.486 56.3613 73.8848 56.4315L73.7412 57.1458C73.3981 57.0609 73.0462 57.017 72.6767 57.017C71.9789 57.017 71.4041 57.3126 70.9584 57.9039C70.5127 58.4951 70.2869 59.2415 70.2869 60.146V64.6625H69.5392V56.4842H70.1726L70.2488 57.9595H70.3016C70.6388 57.3565 70.9965 56.935 71.3777 56.6921C71.7619 56.4462 72.2252 56.3262 72.7676 56.3262Z" fill="white"/>
<path d="M78.1865 56.4834H78.9547L80.6877 61.073C81.2155 62.4839 81.5498 63.4323 81.6905 63.924H81.7345C81.9456 63.2771 82.2887 62.3112 82.7667 61.0262L84.4996 56.4805H85.2679L81.5967 65.9847C81.3005 66.7574 81.0513 67.2784 80.849 67.5506C80.6466 67.8229 80.4121 68.0248 80.1452 68.1595C79.8754 68.2941 79.55 68.3614 79.1688 68.3614C78.8814 68.3614 78.5618 68.3087 78.2099 68.2034V67.5565C78.5002 67.6355 78.814 67.6765 79.1512 67.6765C79.4063 67.6765 79.635 67.615 79.8285 67.495C80.025 67.375 80.2009 67.1877 80.3593 66.936C80.5205 66.6813 80.7023 66.2803 80.9105 65.7329C81.1187 65.1826 81.2536 64.8255 81.3123 64.6616L78.1865 56.4834Z" fill="white"/>
<path d="M96.9266 61.8256C96.9266 62.7447 96.5894 63.4706 95.912 64.0062C95.2376 64.5419 94.3374 64.8112 93.2173 64.8112C91.8713 64.8112 90.8363 64.6619 90.1179 64.3663V63.5994C90.9125 63.936 91.9241 64.1028 93.1557 64.1028C94.0618 64.1028 94.7772 63.895 95.308 63.4823C95.8387 63.0696 96.1026 62.5251 96.1026 61.8519C96.1026 61.4363 96.0146 61.0909 95.8387 60.8186C95.6628 60.5464 95.3783 60.2947 94.9796 60.0693C94.5808 59.8439 94.0002 59.601 93.229 59.3405C92.103 58.9541 91.3259 58.5355 90.8978 58.0877C90.4668 57.6399 90.2527 57.0398 90.2527 56.2934C90.2527 55.4709 90.5753 54.8006 91.2204 54.2825C91.8684 53.7644 92.6982 53.5039 93.7128 53.5039C94.7479 53.5039 95.7214 53.7 96.6304 54.0922L96.3519 54.7538C95.437 54.3732 94.5632 54.183 93.7275 54.183C92.9123 54.183 92.2643 54.3703 91.7834 54.7479C91.3025 55.1255 91.0591 55.6348 91.0591 56.2817C91.0591 56.6886 91.1324 57.0222 91.279 57.2828C91.4286 57.5433 91.669 57.7774 92.0062 57.9882C92.3435 58.196 92.9211 58.4448 93.7392 58.7375C94.5984 59.0331 95.2435 59.32 95.6774 59.5981C96.1085 59.8761 96.4252 60.1923 96.6246 60.5464C96.8269 60.8948 96.9266 61.3221 96.9266 61.8256Z" fill="white"/>
<path d="M99.7152 56.4844V61.7824C99.7152 62.6049 99.8882 63.202 100.234 63.5767C100.58 63.9484 101.117 64.1357 101.847 64.1357C102.823 64.1357 103.539 63.8899 103.999 63.3981C104.46 62.9064 104.688 62.1073 104.688 60.9979V56.4814H105.427V64.6597H104.794L104.659 63.5298H104.615C104.081 64.3816 103.134 64.809 101.774 64.809C99.9087 64.809 98.9763 63.8137 98.9763 61.8204V56.4785H99.7152V56.4844Z" fill="white"/>
<path d="M111.679 64.8117C110.418 64.8117 109.497 64.3405 108.92 63.398H108.867L108.89 64.0302C108.911 64.402 108.92 64.8088 108.92 65.2508V68.3652H108.172V56.4842H108.805L108.949 57.6521H108.993C109.556 56.7682 110.456 56.3262 111.691 56.3262C112.796 56.3262 113.638 56.6891 114.221 57.4121C114.802 58.138 115.092 59.1918 115.092 60.5763C115.092 61.9198 114.787 62.9618 114.177 63.7024C113.567 64.4429 112.734 64.8117 111.679 64.8117ZM111.664 64.1502C112.503 64.1502 113.154 63.84 113.611 63.2165C114.072 62.596 114.3 61.7237 114.3 60.6055C114.3 58.2024 113.432 57.0023 111.693 57.0023C110.738 57.0023 110.037 57.2658 109.591 57.7897C109.142 58.3137 108.92 59.1684 108.92 60.3509V60.5909C108.92 61.87 109.134 62.7833 109.565 63.3306C109.993 63.878 110.694 64.1502 111.664 64.1502Z" fill="white"/>
<path d="M120.672 64.8117C119.482 64.8117 118.552 64.4459 117.886 63.7141C117.221 62.9823 116.887 61.9549 116.887 60.6377C116.887 59.3323 117.209 58.2873 117.851 57.5029C118.493 56.7184 119.361 56.3262 120.452 56.3262C121.417 56.3262 122.179 56.6628 122.736 57.336C123.294 58.0092 123.572 58.9196 123.572 60.0757V60.6787H117.669C117.678 61.8027 117.942 62.6603 118.455 63.2516C118.971 63.8429 119.71 64.1385 120.669 64.1385C121.135 64.1385 121.546 64.1063 121.904 64.0419C122.256 63.9775 122.704 63.837 123.25 63.6204V64.2966C122.789 64.4985 122.361 64.6332 121.968 64.7064C121.578 64.7766 121.144 64.8117 120.672 64.8117ZM120.452 56.9877C119.663 56.9877 119.03 57.2482 118.552 57.7663C118.074 58.2844 117.796 59.0337 117.716 60.0114H122.78C122.78 59.063 122.575 58.3224 122.162 57.7868C121.751 57.2541 121.182 56.9877 120.452 56.9877Z" fill="white"/>
<path d="M129.061 56.3262C129.407 56.3262 129.78 56.3613 130.179 56.4315L130.035 57.1458C129.692 57.0609 129.34 57.017 128.97 57.017C128.273 57.017 127.698 57.3126 127.252 57.9039C126.806 58.4951 126.581 59.2415 126.581 60.146V64.6625H125.833V56.4842H126.466L126.542 57.9595H126.595C126.932 57.3565 127.29 56.935 127.671 56.6921C128.058 56.4462 128.519 56.3262 129.061 56.3262Z" fill="white"/>
<path d="M133.639 64.6616L130.472 56.4834H131.24L133.357 62.0448C133.639 62.7561 133.85 63.3796 133.99 63.9094H134.034C134.24 63.2274 134.451 62.601 134.668 62.0273L136.785 56.4805H137.553L134.386 64.6587H133.639V64.6616Z" fill="white"/>
<path d="M138.823 54.2093C138.823 53.7263 138.981 53.4863 139.298 53.4863C139.453 53.4863 139.576 53.5478 139.664 53.6737C139.752 53.7995 139.796 53.9781 139.796 54.2093C139.796 54.4347 139.752 54.6133 139.664 54.745C139.576 54.8767 139.456 54.9411 139.298 54.9411C138.981 54.9411 138.823 54.6952 138.823 54.2093ZM139.676 64.6619H138.928V56.4836H139.676V64.6619Z" fill="white"/>
<path d="M147.499 62.5306C147.499 63.2623 147.221 63.8273 146.664 64.2195C146.107 64.6146 145.315 64.8108 144.289 64.8108C143.195 64.8108 142.324 64.6439 141.682 64.3073V63.5024C142.506 63.9122 143.377 64.12 144.289 64.12C145.098 64.12 145.711 63.9853 146.133 63.716C146.552 63.4467 146.76 63.0896 146.76 62.6447C146.76 62.232 146.593 61.8866 146.259 61.6056C145.925 61.3246 145.376 61.0495 144.614 60.7773C143.796 60.4816 143.218 60.227 142.887 60.0133C142.556 59.7996 142.306 59.5596 142.139 59.2903C141.969 59.0239 141.887 58.6961 141.887 58.3097C141.887 57.698 142.145 57.215 142.658 56.8579C143.174 56.5008 143.893 56.3223 144.819 56.3223C145.702 56.3223 146.543 56.4891 147.338 56.8199L147.06 57.496C146.256 57.1653 145.508 56.9984 144.822 56.9984C144.154 56.9984 143.623 57.1096 143.23 57.3292C142.837 57.5516 142.641 57.856 142.641 58.2483C142.641 58.6756 142.793 59.0152 143.095 59.2727C143.4 59.5274 143.995 59.8143 144.878 60.1304C145.617 60.3967 146.154 60.6368 146.491 60.8475C146.828 61.0612 147.08 61.3012 147.25 61.5734C147.417 61.8456 147.499 62.1647 147.499 62.5306Z" fill="white"/>
<path d="M156.387 60.5607C156.387 61.8954 156.062 62.9374 155.417 63.6868C154.769 64.4361 153.874 64.8108 152.734 64.8108C152.015 64.8108 151.382 64.6381 150.833 64.2927C150.285 63.9473 149.866 63.4497 149.575 62.8028C149.285 62.1559 149.139 61.4095 149.139 60.5607C149.139 59.2259 149.464 58.1868 150.112 57.4404C150.76 56.6969 151.652 56.3223 152.78 56.3223C153.906 56.3223 154.789 56.6999 155.428 57.455C156.067 58.2102 156.387 59.2464 156.387 60.5607ZM149.921 60.5607C149.921 61.6847 150.171 62.5598 150.663 63.1921C151.159 63.8214 151.86 64.1375 152.763 64.1375C153.669 64.1375 154.367 63.8214 154.862 63.1921C155.358 62.5628 155.604 61.6847 155.604 60.5607C155.604 59.4308 155.355 58.5556 154.854 57.9351C154.352 57.3116 153.651 57.0013 152.745 57.0013C151.839 57.0013 151.144 57.3116 150.655 57.9292C150.165 58.5498 149.921 59.4279 149.921 60.5607Z" fill="white"/>
<path d="M161.882 56.3262C162.228 56.3262 162.601 56.3613 162.999 56.4315L162.856 57.1458C162.513 57.0609 162.161 57.017 161.791 57.017C161.093 57.017 160.519 57.3126 160.073 57.9039C159.624 58.4951 159.401 59.2415 159.401 60.146V64.6625H158.654V56.4842H159.287L159.363 57.9595H159.416C159.753 57.3565 160.111 56.935 160.492 56.6921C160.879 56.4462 161.34 56.3262 161.882 56.3262Z" fill="white"/>
<path d="M169.632 64.663H168.864V53.6602H174.901V54.3685H169.632V59.0342H174.608V59.7485H169.632V64.663Z" fill="white"/>
<path d="M176.318 54.2093C176.318 53.7263 176.476 53.4863 176.793 53.4863C176.948 53.4863 177.071 53.5478 177.159 53.6737C177.247 53.7995 177.291 53.9781 177.291 54.2093C177.291 54.4347 177.247 54.6133 177.159 54.745C177.071 54.8767 176.951 54.9411 176.793 54.9411C176.476 54.9411 176.318 54.6952 176.318 54.2093ZM177.171 64.6619H176.423V56.4836H177.171V64.6619Z" fill="white"/>
<path d="M185.628 64.6625V59.3557C185.628 58.5332 185.455 57.9361 185.109 57.5614C184.763 57.1897 184.226 57.0023 183.496 57.0023C182.517 57.0023 181.798 57.2511 181.344 57.7429C180.889 58.2376 180.66 59.0396 180.66 60.146V64.6625H179.916V56.4842H180.549L180.693 57.6053H180.737C181.27 56.7535 182.217 56.3262 183.578 56.3262C185.437 56.3262 186.367 57.3214 186.367 59.3147V64.6654H185.628V64.6625Z" fill="white"/>
<path d="M193.996 64.6625L193.809 63.3687H193.747C193.334 63.8956 192.911 64.2673 192.477 64.4868C192.041 64.7064 191.527 64.8147 190.935 64.8147C190.132 64.8147 189.504 64.6098 189.058 64.1971C188.61 63.7844 188.387 63.2165 188.387 62.4877C188.387 61.6915 188.718 61.071 189.387 60.629C190.052 60.187 191.014 59.9528 192.278 59.9294L193.838 59.8855V59.344C193.838 58.5654 193.68 57.98 193.363 57.5848C193.046 57.1897 192.536 56.9906 191.832 56.9906C191.073 56.9906 190.287 57.2014 189.472 57.6229L189.193 56.976C190.094 56.5545 190.982 56.3438 191.862 56.3438C192.762 56.3438 193.433 56.5779 193.879 57.0433C194.322 57.5087 194.545 58.2376 194.545 59.224V64.6654H193.996V64.6625ZM190.982 64.1356C191.856 64.1356 192.545 63.8868 193.052 63.3863C193.557 62.8857 193.809 62.195 193.809 61.3051V60.5002L192.378 60.5617C191.225 60.6173 190.404 60.7958 189.918 61.1002C189.428 61.4046 189.182 61.8759 189.182 62.5199C189.182 63.0321 189.34 63.4302 189.654 63.7141C189.965 63.9922 190.407 64.1356 190.982 64.1356Z" fill="white"/>
<path d="M202.913 64.6625V59.3557C202.913 58.5332 202.74 57.9361 202.394 57.5614C202.048 57.1897 201.512 57.0023 200.782 57.0023C199.802 57.0023 199.084 57.2511 198.629 57.7429C198.175 58.2376 197.946 59.0396 197.946 60.146V64.6625H197.201V56.4842H197.835L197.978 57.6053H198.022C198.556 56.7535 199.503 56.3262 200.864 56.3262C202.723 56.3262 203.652 57.3214 203.652 59.3147V64.6654H202.913V64.6625Z" fill="white"/>
<path d="M209.578 64.8108C208.408 64.8108 207.491 64.442 206.828 63.7043C206.165 62.9667 205.834 61.9393 205.834 60.6192C205.834 59.264 206.177 58.2102 206.866 57.455C207.555 56.6999 208.496 56.3223 209.693 56.3223C210.402 56.3223 211.08 56.4452 211.728 56.6911L211.525 57.3526C210.819 57.1155 210.2 56.9984 209.678 56.9984C208.672 56.9984 207.913 57.3087 207.394 57.9263C206.875 58.5468 206.617 59.4396 206.617 60.6016C206.617 61.7051 206.875 62.5686 207.394 63.195C207.913 63.8185 208.634 64.1317 209.564 64.1317C210.309 64.1317 210.998 64 211.637 63.7336V64.4273C211.112 64.6849 210.426 64.8108 209.578 64.8108Z" fill="white"/>
<path d="M213.534 54.2093C213.534 53.7263 213.692 53.4863 214.009 53.4863C214.165 53.4863 214.288 53.5478 214.376 53.6737C214.464 53.7995 214.508 53.9781 214.508 54.2093C214.508 54.4347 214.464 54.6133 214.376 54.745C214.288 54.8767 214.167 54.9411 214.009 54.9411C213.692 54.9411 213.534 54.6952 213.534 54.2093ZM214.387 64.6619H213.64V56.4836H214.387V64.6619Z" fill="white"/>
<path d="M220.44 64.8117C219.249 64.8117 218.32 64.4459 217.654 63.7141C216.988 62.9823 216.654 61.9549 216.654 60.6377C216.654 59.3323 216.977 58.2873 217.619 57.5029C218.261 56.7184 219.129 56.3262 220.22 56.3262C221.184 56.3262 221.947 56.6628 222.504 57.336C223.061 58.0092 223.34 58.9196 223.34 60.0757V60.6787H217.437C217.446 61.8027 217.71 62.6603 218.223 63.2516C218.739 63.8429 219.478 64.1385 220.437 64.1385C220.903 64.1385 221.313 64.1063 221.671 64.0419C222.023 63.9775 222.472 63.837 223.017 63.6204V64.2966C222.557 64.4985 222.129 64.6332 221.736 64.7064C221.346 64.7766 220.912 64.8117 220.44 64.8117ZM220.22 56.9877C219.431 56.9877 218.797 57.2482 218.32 57.7663C217.842 58.2844 217.563 59.0337 217.484 60.0114H222.548C222.548 59.063 222.343 58.3224 221.929 57.7868C221.519 57.2541 220.95 56.9877 220.22 56.9877Z" fill="white"/>
<path d="M228.829 56.3262C229.175 56.3262 229.547 56.3613 229.946 56.4315L229.802 57.1458C229.459 57.0609 229.107 57.017 228.738 57.017C228.04 57.017 227.465 57.3126 227.02 57.9039C226.574 58.4951 226.348 59.2415 226.348 60.146V64.6625H225.603V56.4842H226.237L226.313 57.9595H226.366C226.703 57.3565 227.061 56.935 227.442 56.6921C227.826 56.4462 228.286 56.3262 228.829 56.3262Z" fill="white"/>
<path d="M238.388 60.5607C238.388 61.8954 238.063 62.9374 237.417 63.6868C236.769 64.4361 235.875 64.8108 234.734 64.8108C234.016 64.8108 233.383 64.6381 232.834 64.2927C232.286 63.9473 231.867 63.4497 231.576 62.8028C231.286 62.1559 231.139 61.4095 231.139 60.5607C231.139 59.2259 231.465 58.1868 232.113 57.4404C232.761 56.6969 233.652 56.3223 234.781 56.3223C235.907 56.3223 236.79 56.6999 237.429 57.455C238.068 58.2102 238.388 59.2464 238.388 60.5607ZM231.919 60.5607C231.919 61.6847 232.169 62.5598 232.661 63.1921C233.157 63.8214 233.858 64.1375 234.761 64.1375C235.667 64.1375 236.365 63.8214 236.86 63.1921C237.356 62.5628 237.602 61.6847 237.602 60.5607C237.602 59.4308 237.353 58.5556 236.851 57.9351C236.35 57.3116 235.649 57.0013 234.743 57.0013C233.837 57.0013 233.142 57.3116 232.652 57.9292C232.166 58.5498 231.919 59.4279 231.919 60.5607Z" fill="white"/>
<path d="M247.669 56.3222C248.261 56.3222 248.774 56.4305 249.208 56.6471C249.639 56.8637 250.026 57.2325 250.369 57.7535H250.413C250.384 57.1213 250.369 56.5007 250.369 55.8948V52.9531H251.108V64.6614H250.618L250.431 63.4115H250.369C249.745 64.3453 248.853 64.8107 247.686 64.8107C246.554 64.8107 245.689 64.4594 245.094 63.7569C244.496 63.0544 244.197 62.03 244.197 60.6864C244.197 59.2727 244.493 58.1896 245.085 57.4432C245.675 56.6968 246.537 56.3222 247.669 56.3222ZM247.669 57.0013C246.774 57.0013 246.103 57.3145 245.654 57.9408C245.203 58.5672 244.98 59.4776 244.98 60.6718C244.98 62.99 245.883 64.1492 247.686 64.1492C248.61 64.1492 249.29 63.8799 249.721 63.3442C250.152 62.8086 250.369 61.9217 250.369 60.6894V60.5606C250.369 59.2961 250.158 58.3858 249.733 57.8325C249.305 57.2793 248.619 57.0013 247.669 57.0013Z" fill="white"/>
<path d="M257.166 64.8117C255.976 64.8117 255.046 64.4459 254.381 63.7141C253.715 62.9823 253.381 61.9549 253.381 60.6377C253.381 59.3323 253.703 58.2873 254.345 57.5029C254.988 56.7184 255.856 56.3262 256.946 56.3262C257.911 56.3262 258.673 56.6628 259.231 57.336C259.788 58.0092 260.066 58.9196 260.066 60.0757V60.6787H254.164C254.172 61.8027 254.436 62.6603 254.949 63.2516C255.466 63.8429 256.204 64.1385 257.163 64.1385C257.63 64.1385 258.04 64.1063 258.398 64.0419C258.75 63.9775 259.198 63.837 259.744 63.6204V64.2966C259.283 64.4985 258.855 64.6332 258.462 64.7064C258.069 64.7766 257.638 64.8117 257.166 64.8117ZM256.946 56.9877C256.158 56.9877 255.524 57.2482 255.046 57.7663C254.568 58.2844 254.29 59.0337 254.21 60.0114H259.275C259.275 59.063 259.069 58.3224 258.656 57.7868C258.245 57.2541 257.676 56.9877 256.946 56.9877Z" fill="white"/>
<path d="M271.232 54.1957C269.851 54.1957 268.76 54.6377 267.969 55.5216C267.174 56.4056 266.778 57.6145 266.778 59.1483C266.778 60.7172 267.154 61.9378 267.901 62.8042C268.649 63.6735 269.719 64.1067 271.112 64.1067C272.036 64.1067 272.886 63.9896 273.66 63.7525V64.4287C272.93 64.6834 272.021 64.8121 270.93 64.8121C269.382 64.8121 268.165 64.3116 267.274 63.3164C266.385 62.3183 265.94 60.9221 265.94 59.1336C265.94 58.0155 266.154 57.0291 266.576 56.1744C267.001 55.3226 267.611 54.664 268.409 54.1986C269.203 53.7361 270.13 53.502 271.185 53.502C272.262 53.502 273.223 53.7039 274.074 54.1049L273.766 54.7986C272.959 54.3976 272.115 54.1957 271.232 54.1957Z" fill="white"/>
<path d="M281.642 64.6614V59.3546C281.642 58.5321 281.469 57.935 281.123 57.5603C280.777 57.1886 280.24 57.0013 279.51 57.0013C278.531 57.0013 277.812 57.2501 277.358 57.7418C276.903 58.2365 276.675 59.0385 276.675 60.1449V64.6614H275.93V52.9531H276.675V56.6793L276.636 57.7242H276.689C276.997 57.2325 277.384 56.8754 277.85 56.6559C278.317 56.4363 278.897 56.3251 279.592 56.3251C281.451 56.3251 282.381 57.3203 282.381 59.3136V64.6643H281.642V64.6614Z" fill="white"/>
<path d="M284.929 54.2093C284.929 53.7263 285.087 53.4863 285.404 53.4863C285.559 53.4863 285.683 53.5478 285.771 53.6737C285.858 53.7995 285.902 53.9781 285.902 54.2093C285.902 54.4347 285.858 54.6133 285.771 54.745C285.683 54.8767 285.562 54.9411 285.404 54.9411C285.087 54.9411 284.929 54.6952 284.929 54.2093ZM285.779 64.6619H285.032V56.4836H285.779V64.6619Z" fill="white"/>
<path d="M289.272 52.9531H288.524V64.6614H289.272V52.9531Z" fill="white"/>
<path d="M295.324 64.8117C294.133 64.8117 293.204 64.4459 292.538 63.7141C291.873 62.9823 291.538 61.9549 291.538 60.6377C291.538 59.3323 291.861 58.2873 292.503 57.5029C293.145 56.7184 294.013 56.3262 295.104 56.3262C296.069 56.3262 296.831 56.6628 297.388 57.336C297.945 58.0092 298.224 58.9196 298.224 60.0757V60.6787H292.321C292.33 61.8027 292.594 62.6603 293.107 63.2516C293.623 63.8429 294.362 64.1385 295.321 64.1385C295.787 64.1385 296.198 64.1063 296.555 64.0419C296.907 63.9775 297.356 63.837 297.901 63.6204V64.2966C297.441 64.4985 297.013 64.6332 296.62 64.7064C296.23 64.7766 295.796 64.8117 295.324 64.8117ZM295.104 56.9877C294.315 56.9877 293.682 57.2482 293.204 57.7663C292.726 58.2844 292.447 59.0337 292.368 60.0114H297.432C297.432 59.063 297.227 58.3224 296.813 57.7868C296.403 57.2541 295.834 56.9877 295.104 56.9877Z" fill="white"/>
<path d="M136.319 5.46289H135.823V36.6127H136.319V5.46289Z" fill="white"/>
<path d="M121.021 36.6127L120.998 22.9375H129.56V17.5985H120.989L120.977 10.8077H131.205V5.46875H114.063L114.11 33.8057L121.021 36.6127Z" fill="white"/>
<path d="M102.891 15.1749V29.257L108.723 31.628V5.46875L93.1674 13.2313L77.6118 5.46875V12.7484L93.1674 19.0562L102.891 15.1749Z" fill="white"/>
<path d="M148.274 5.96534V6.79955C148.274 6.81418 148.268 6.82297 148.253 6.83175C148.241 6.8376 148.23 6.8376 148.218 6.82882C147.675 6.39854 147.054 6.18194 146.359 6.18194C145.532 6.18194 144.825 6.47172 144.239 7.05713C143.655 7.64254 143.362 8.34797 143.362 9.1734C143.362 9.99883 143.655 10.7013 144.239 11.2838C144.825 11.8692 145.532 12.159 146.359 12.159C147.054 12.159 147.675 11.9424 148.218 11.5121C148.23 11.5033 148.241 11.5033 148.253 11.5063C148.268 11.5151 148.274 11.5238 148.274 11.5385V12.1063C148.274 12.3054 148.183 12.4488 148.001 12.5395C147.482 12.7913 146.933 12.9171 146.356 12.9171C145.318 12.9171 144.435 12.5512 143.702 11.8224C142.969 11.0906 142.603 10.2067 142.603 9.1734C142.603 8.13722 142.969 7.25617 143.702 6.52148C144.435 5.78971 145.318 5.42383 146.356 5.42383C147.039 5.42383 147.669 5.59653 148.253 5.93899C148.268 5.94192 148.274 5.95363 148.274 5.96534Z" fill="white"/>
<path d="M157.633 9.17145C157.633 10.2047 157.267 11.0887 156.534 11.8204C155.801 12.5522 154.915 12.9181 153.88 12.9181C152.845 12.9181 151.959 12.5522 151.226 11.8204C150.493 11.0887 150.127 10.2047 150.127 9.17145C150.127 8.13527 150.493 7.25129 151.226 6.51953C151.956 5.78776 152.842 5.42188 153.88 5.42188C154.915 5.42188 155.801 5.78776 156.534 6.51953C157.267 7.25129 157.633 8.13527 157.633 9.17145ZM151.76 7.05518C151.176 7.64059 150.883 8.34602 150.883 9.17145C150.883 9.99688 151.176 10.6994 151.76 11.2819C152.346 11.8673 153.053 12.1571 153.877 12.1571C154.704 12.1571 155.411 11.8644 155.994 11.2819C156.581 10.6994 156.871 9.99395 156.871 9.17145C156.871 8.34602 156.578 7.64059 155.994 7.05518C155.411 6.47269 154.704 6.17999 153.877 6.17999C153.053 6.18291 152.346 6.47269 151.76 7.05518Z" fill="white"/>
<path d="M160.076 5.59182L163.357 9.78631L166.638 5.59182C166.679 5.53914 166.732 5.5245 166.794 5.54792C166.855 5.56841 166.888 5.61231 166.888 5.67671V12.7222C166.888 12.7456 166.876 12.7544 166.855 12.7544H166.407C166.33 12.7544 166.266 12.728 166.213 12.6753C166.157 12.6226 166.131 12.5582 166.131 12.4821V7.47393L163.416 10.9454C163.401 10.963 163.384 10.9718 163.36 10.9718C163.337 10.9718 163.319 10.963 163.304 10.9454L160.589 7.47393V12.7222C160.589 12.7456 160.577 12.7544 160.551 12.7544H159.862C159.838 12.7544 159.83 12.7426 159.83 12.7222V5.67671C159.83 5.61231 159.862 5.56841 159.923 5.54792C159.982 5.5245 160.035 5.53914 160.076 5.59182Z" fill="white"/>
<path d="M170.412 12.7543H169.723C169.7 12.7543 169.691 12.7426 169.691 12.7221V5.61814C169.691 5.59472 169.703 5.58594 169.723 5.58594H170.412C170.436 5.58594 170.447 5.59765 170.447 5.61814V12.7221C170.447 12.7426 170.436 12.7543 170.412 12.7543Z" fill="white"/>
<path d="M175.028 12.1653C175.418 12.1565 175.737 12.098 175.986 11.9867C176.268 11.8609 176.467 11.6589 176.582 11.3867C176.714 11.0764 176.719 10.7691 176.596 10.4705C176.47 10.1632 176.244 9.93487 175.919 9.78266L173.761 8.78161C173.737 8.7699 173.714 8.75819 173.687 8.74356C173.268 8.52695 172.984 8.21083 172.837 7.79226C172.723 7.46736 172.714 7.13367 172.814 6.7912C172.875 6.57753 172.972 6.38727 173.104 6.2175C173.336 5.92479 173.649 5.71404 174.045 5.58525C174.227 5.52671 174.423 5.4828 174.64 5.45353C174.852 5.42719 175.072 5.41548 175.3 5.41841C175.951 5.43012 176.564 5.57354 177.142 5.84576C177.156 5.85161 177.162 5.86039 177.162 5.87796V6.65363C177.162 6.66827 177.156 6.67705 177.145 6.67997C177.133 6.68875 177.121 6.68875 177.109 6.67997C177.065 6.65656 177.024 6.63314 176.986 6.61265C176.456 6.33165 175.89 6.18237 175.289 6.17066C175.098 6.16774 174.913 6.17652 174.737 6.20286C174.567 6.22335 174.415 6.25848 174.274 6.30238C174.092 6.36092 173.937 6.44581 173.811 6.55996C173.673 6.67997 173.582 6.83218 173.535 7.01073C173.485 7.19221 173.488 7.37076 173.547 7.54053C173.632 7.78348 173.837 7.97959 174.154 8.12595L176.236 9.0948C176.743 9.32897 177.098 9.69485 177.297 10.1866C177.497 10.6754 177.491 11.173 177.277 11.6794C177.083 12.136 176.755 12.4697 176.288 12.6746C175.948 12.8268 175.532 12.9088 175.039 12.9176C174.353 12.9322 173.726 12.7975 173.157 12.5078C172.981 12.417 172.893 12.2765 172.893 12.0775V11.5096C172.893 11.495 172.899 11.4862 172.913 11.4774C172.925 11.4716 172.937 11.4716 172.949 11.4804C173.063 11.5682 173.177 11.6472 173.292 11.7175C173.814 12.0336 174.391 12.1799 175.028 12.1653Z" fill="white"/>
<path d="M180.385 12.7543H179.696C179.672 12.7543 179.663 12.7426 179.663 12.7221V5.61814C179.663 5.59472 179.675 5.58594 179.696 5.58594H180.385C180.408 5.58594 180.42 5.59765 180.42 5.61814V12.7221C180.42 12.7426 180.408 12.7543 180.385 12.7543Z" fill="white"/>
<path d="M190.123 9.17082C190.123 10.2041 189.756 11.0881 189.023 11.8198C188.29 12.5516 187.405 12.9175 186.37 12.9175C185.332 12.9175 184.449 12.5516 183.716 11.8198C182.983 11.0881 182.616 10.2041 182.616 9.17082C182.616 8.13464 182.983 7.25359 183.716 6.5189C184.449 5.78713 185.332 5.42125 186.37 5.42125C187.405 5.42125 188.29 5.78713 189.023 6.5189C189.756 7.25067 190.123 8.13464 190.123 9.17082ZM184.252 7.05455C183.669 7.63997 183.376 8.34539 183.376 9.17082C183.376 9.99626 183.666 10.6988 184.252 11.2812C184.839 11.8667 185.546 12.1564 186.373 12.1564C187.199 12.1564 187.903 11.8637 188.487 11.2812C189.073 10.6988 189.366 9.99333 189.366 9.17082C189.366 8.34539 189.073 7.63997 188.487 7.05455C187.903 6.47207 187.196 6.17936 186.373 6.17936C185.543 6.18229 184.836 6.47207 184.252 7.05455ZM186.035 5.04366L185.768 4.7773C185.76 4.77144 185.757 4.76266 185.757 4.75388C185.757 4.74217 185.76 4.73339 185.768 4.72754L186.856 3.64452C186.865 3.63867 186.871 3.63281 186.883 3.63281H187.566C187.581 3.63281 187.592 3.64159 187.598 3.6533C187.607 3.66794 187.604 3.67965 187.589 3.69135L186.232 5.04073C186.161 5.10805 186.097 5.10805 186.035 5.04366Z" fill="white"/>
<path d="M197.283 12.7913C197.216 12.8147 197.16 12.7971 197.119 12.7415L193.079 7.47864V12.721C193.079 12.7415 193.067 12.7532 193.043 12.7532H192.354C192.331 12.7532 192.322 12.7415 192.322 12.721V5.68435C192.322 5.6141 192.354 5.56726 192.422 5.54385C192.489 5.52043 192.545 5.53506 192.586 5.59361L196.627 10.8565V5.85997C196.627 5.78094 196.653 5.71654 196.709 5.66386C196.762 5.61117 196.826 5.58482 196.902 5.58482H197.351C197.374 5.58482 197.383 5.59653 197.383 5.61702V12.6537C197.383 12.721 197.351 12.7678 197.283 12.7913Z" fill="white"/>
<path d="M143.362 21.5695V24.5639C143.362 24.5873 143.35 24.599 143.327 24.599H142.638C142.614 24.599 142.603 24.5873 142.603 24.5639V17.4599C142.603 17.4394 142.614 17.4277 142.638 17.4277H145.013C145.473 17.4277 145.869 17.5477 146.2 17.7848C146.502 18.0044 146.725 18.2971 146.869 18.6688C146.972 18.9322 147.024 19.2074 147.024 19.4972C147.024 19.784 146.975 20.0592 146.869 20.3255C146.725 20.6973 146.502 20.99 146.2 21.2066C145.869 21.4466 145.473 21.5666 145.013 21.5666H143.362V21.5695ZM143.362 20.8085H145.013C145.582 20.8085 145.966 20.5568 146.162 20.0504C146.23 19.8777 146.262 19.6933 146.262 19.4972C146.262 19.2981 146.23 19.1137 146.162 18.9381C145.963 18.4346 145.582 18.1829 145.013 18.1829H143.362V20.8085Z" fill="white"/>
<path d="M148.664 24.5785C148.658 24.5902 148.649 24.5961 148.631 24.5961H147.878C147.866 24.5961 147.857 24.5902 147.851 24.5814C147.842 24.5697 147.842 24.561 147.848 24.5492L150.959 17.4774C150.989 17.4101 151.042 17.375 151.118 17.375C151.191 17.375 151.244 17.4101 151.276 17.4774L154.387 24.5492C154.393 24.558 154.39 24.5697 154.384 24.5814C154.376 24.5902 154.367 24.5961 154.352 24.5961H153.804C153.654 24.5961 153.549 24.5288 153.49 24.3941L152.874 22.995H149.358L148.664 24.5785ZM151.118 18.9995L149.693 22.2398H152.543L151.118 18.9995Z" fill="white"/>
<path d="M156.748 21.5695V24.5639C156.748 24.5873 156.736 24.599 156.713 24.599H156.024C156.003 24.599 155.991 24.5873 155.991 24.5639V17.4599C155.991 17.4394 156.003 17.4277 156.024 17.4277H158.402C158.862 17.4277 159.258 17.5477 159.589 17.7848C159.891 18.0044 160.114 18.2971 160.258 18.6688C160.36 18.9322 160.413 19.2074 160.413 19.4972C160.413 19.784 160.363 20.0592 160.258 20.3255C159.967 21.0661 159.431 21.4759 158.645 21.5549L160.85 24.5434C160.859 24.5551 160.859 24.5669 160.853 24.5786C160.847 24.5903 160.838 24.5961 160.824 24.5961H160.161C160.023 24.5961 159.912 24.5405 159.827 24.4293L157.777 21.6486C157.736 21.593 157.68 21.5666 157.61 21.5666H156.748V21.5695ZM156.748 20.8085H158.399C158.968 20.8085 159.352 20.5568 159.548 20.0504C159.616 19.8777 159.648 19.6933 159.648 19.4972C159.648 19.2981 159.616 19.1137 159.548 18.9381C159.349 18.4346 158.968 18.1829 158.399 18.1829H156.748V20.8085Z" fill="white"/>
<path d="M162.401 24.5785C162.395 24.5902 162.387 24.5961 162.369 24.5961H161.615C161.604 24.5961 161.595 24.5902 161.589 24.5814C161.58 24.5697 161.58 24.561 161.586 24.5492L164.697 17.4774C164.726 17.4101 164.779 17.375 164.856 17.375C164.929 17.375 164.982 17.4101 165.014 17.4774L168.125 24.5492C168.131 24.558 168.128 24.5697 168.122 24.5814C168.113 24.5902 168.104 24.5961 168.09 24.5961H167.541C167.392 24.5961 167.286 24.5288 167.228 24.3941L166.612 22.995H163.096L162.401 24.5785ZM164.853 18.9995L163.427 22.2398H166.278L164.853 18.9995Z" fill="white"/>
<path d="M174.333 20.4572H176.382C176.406 20.4572 176.415 20.469 176.415 20.4924V20.9402C176.415 21.0163 176.388 21.0836 176.335 21.1363C176.283 21.189 176.215 21.2154 176.139 21.2154H174.33V23.8439H176.139C176.218 23.8439 176.283 23.8702 176.335 23.9229C176.388 23.9756 176.415 24.0429 176.415 24.119V24.5639C176.415 24.5873 176.403 24.5961 176.382 24.5961H173.849C173.773 24.5961 173.708 24.5698 173.652 24.5171C173.6 24.4644 173.573 24.4 173.573 24.3239V17.4599C173.573 17.4365 173.585 17.4277 173.608 17.4277H176.385C176.409 17.4277 176.417 17.4394 176.417 17.4599V18.1478C176.417 18.1712 176.406 18.1858 176.385 18.1858H174.336V20.4572H174.333Z" fill="white"/>
<path d="M181.479 23.8409C181.555 23.8409 181.622 23.8673 181.675 23.92C181.728 23.9727 181.754 24.04 181.754 24.1161V24.561C181.754 24.5844 181.742 24.5932 181.722 24.5932H179.188C179.112 24.5932 179.048 24.5669 178.992 24.5142C178.939 24.4615 178.913 24.3971 178.913 24.321V17.4599C178.913 17.4394 178.925 17.4277 178.945 17.4277H179.634C179.658 17.4277 179.672 17.4394 179.672 17.4599V23.8409H181.479Z" fill="white"/>
<path d="M187.985 17.4337L191.266 21.6311L194.548 17.4367C194.589 17.384 194.641 17.3693 194.703 17.3928C194.765 17.4132 194.797 17.4571 194.797 17.5215V24.567C194.797 24.5875 194.785 24.5992 194.765 24.5992H194.316C194.24 24.5992 194.175 24.5728 194.122 24.5202C194.067 24.4675 194.04 24.4031 194.04 24.327V19.3158L191.325 22.7873C191.31 22.8049 191.293 22.8137 191.269 22.8137C191.246 22.8137 191.228 22.8049 191.214 22.7873L188.498 19.3158V24.5641C188.498 24.5846 188.487 24.5963 188.46 24.5963H187.771C187.748 24.5963 187.739 24.5846 187.739 24.5641V17.5186C187.739 17.4542 187.771 17.4103 187.833 17.3898C187.891 17.3693 187.944 17.384 187.985 17.4337Z" fill="white"/>
<path d="M198.36 20.4572H200.409C200.433 20.4572 200.442 20.469 200.442 20.4924V20.9402C200.442 21.0163 200.415 21.0836 200.362 21.1363C200.31 21.189 200.242 21.2154 200.166 21.2154H198.357V23.8439H200.166C200.245 23.8439 200.31 23.8702 200.362 23.9229C200.415 23.9756 200.442 24.0429 200.442 24.119V24.5639C200.442 24.5873 200.43 24.5961 200.409 24.5961H197.876C197.8 24.5961 197.735 24.5698 197.679 24.5171C197.627 24.4644 197.6 24.4 197.6 24.3239V17.4599C197.6 17.4365 197.612 17.4277 197.632 17.4277H200.409C200.433 17.4277 200.442 17.4394 200.442 17.4599V18.1478C200.442 18.1712 200.43 18.1858 200.409 18.1858H198.36V20.4572Z" fill="white"/>
<path d="M203.696 21.5695V24.5639C203.696 24.5873 203.685 24.599 203.661 24.599H202.972C202.952 24.599 202.94 24.5873 202.94 24.5639V17.4599C202.94 17.4394 202.952 17.4277 202.972 17.4277H205.35C205.81 17.4277 206.206 17.5477 206.538 17.7848C206.84 18.0044 207.063 18.2971 207.206 18.6688C207.309 18.9322 207.362 19.2074 207.362 19.4972C207.362 19.784 207.309 20.0592 207.206 20.3255C206.916 21.0661 206.379 21.4759 205.594 21.5549L207.799 24.5434C207.807 24.5551 207.807 24.5669 207.801 24.5786C207.796 24.5903 207.787 24.5961 207.772 24.5961H207.109C206.972 24.5961 206.86 24.5405 206.775 24.4293L204.726 21.6486C204.684 21.593 204.629 21.5666 204.558 21.5666H203.696V21.5695ZM203.696 20.8085H205.347C205.916 20.8085 206.3 20.5568 206.497 20.0504C206.564 19.8777 206.596 19.6933 206.596 19.4972C206.596 19.2981 206.564 19.1137 206.497 18.9381C206.297 18.4346 205.916 18.1829 205.347 18.1829H203.696V20.8085Z" fill="white"/>
<path d="M214.798 17.811V18.6453C214.798 18.6599 214.792 18.6687 214.777 18.6775C214.766 18.6833 214.754 18.6833 214.742 18.6745C214.2 18.2442 213.578 18.0276 212.883 18.0276C212.056 18.0276 211.35 18.3174 210.766 18.9028C210.183 19.4882 209.889 20.1937 209.889 21.0162C209.889 21.8416 210.183 22.547 210.766 23.1295C211.352 23.7149 212.056 24.0047 212.883 24.0047C213.578 24.0047 214.2 23.7881 214.742 23.3578C214.754 23.3491 214.766 23.349 214.777 23.352C214.792 23.3608 214.798 23.3695 214.798 23.3842V23.952C214.798 24.1511 214.707 24.2945 214.525 24.3852C214.006 24.637 213.458 24.7628 212.88 24.7628C211.845 24.7628 210.96 24.3969 210.226 23.6652C209.493 22.9334 209.127 22.0494 209.127 21.0162C209.127 19.9829 209.493 19.0989 210.226 18.3672C210.96 17.6354 211.842 17.2695 212.88 17.2695C213.563 17.2695 214.197 17.4422 214.777 17.7847C214.792 17.7876 214.798 17.7964 214.798 17.811Z" fill="white"/>
<path d="M216.874 24.5785C216.868 24.5902 216.859 24.5961 216.842 24.5961H216.088C216.076 24.5961 216.068 24.5902 216.062 24.5814C216.053 24.5697 216.053 24.561 216.059 24.5492L219.17 17.4774C219.199 17.4101 219.252 17.375 219.328 17.375C219.402 17.375 219.454 17.4101 219.487 17.4774L222.598 24.5492C222.604 24.558 222.601 24.5697 222.595 24.5814C222.586 24.5902 222.577 24.5961 222.563 24.5961H222.014C221.865 24.5961 221.759 24.5288 221.7 24.3941L221.085 22.995H217.569L216.874 24.5785ZM219.325 18.9995L217.9 22.2398H220.75L219.325 18.9995Z" fill="white"/>
<path d="M228.266 18.0483C228.747 18.4229 229.101 18.9322 229.333 19.5762C229.5 20.0328 229.582 20.5129 229.582 21.0134C229.582 21.5139 229.5 21.994 229.333 22.4535C229.101 23.0945 228.747 23.6038 228.266 23.9785C227.735 24.3942 227.096 24.599 226.357 24.599H224.474C224.398 24.599 224.334 24.5727 224.278 24.52C224.225 24.4673 224.199 24.4029 224.199 24.3268V17.4599C224.199 17.4394 224.21 17.4277 224.231 17.4277H226.357C227.099 17.4277 227.735 17.6326 228.266 18.0483ZM224.958 23.8409H226.357C226.917 23.8409 227.401 23.6829 227.805 23.3638C228.172 23.077 228.445 22.6877 228.621 22.1959C228.753 21.8271 228.82 21.432 228.82 21.0134C228.82 20.5919 228.753 20.1967 228.621 19.8279C228.445 19.3362 228.172 18.9469 227.805 18.66C227.401 18.3439 226.917 18.1858 226.357 18.1858H224.958V23.8409Z" fill="white"/>
<path d="M238.672 21.0142C238.672 22.0475 238.306 22.9315 237.573 23.6632C236.84 24.395 235.954 24.7609 234.919 24.7609C233.884 24.7609 232.998 24.395 232.265 23.6632C231.532 22.9315 231.166 22.0475 231.166 21.0142C231.166 19.981 231.532 19.097 232.265 18.3652C232.996 17.6335 233.881 17.2676 234.919 17.2676C235.954 17.2676 236.84 17.6335 237.573 18.3652C238.306 19.0941 238.672 19.978 238.672 21.0142ZM232.802 18.9009C232.219 19.4863 231.925 20.1917 231.925 21.0142C231.925 21.8397 232.216 22.5451 232.802 23.1276C233.388 23.713 234.095 24.0028 234.919 24.0028C235.746 24.0028 236.453 23.7101 237.036 23.1276C237.623 22.5451 237.913 21.8397 237.913 21.0142C237.913 20.1888 237.62 19.4834 237.036 18.9009C236.453 18.3184 235.746 18.0257 234.919 18.0257C234.092 18.0257 233.388 18.3155 232.802 18.9009Z" fill="white"/>
<path d="M143.362 36.4077C143.362 36.4311 143.35 36.4399 143.327 36.4399H142.638C142.614 36.4399 142.603 36.4282 142.603 36.4077V29.3037C142.603 29.2803 142.614 29.2715 142.638 29.2715H145.415C145.438 29.2715 145.447 29.2832 145.447 29.3037V29.9915C145.447 30.015 145.435 30.0296 145.415 30.0296H143.365V32.301H145.415C145.438 32.301 145.447 32.3127 145.447 32.3361V32.784C145.447 32.8601 145.42 32.9274 145.368 32.9801C145.315 33.0328 145.247 33.0591 145.171 33.0591H143.362V36.4077Z" fill="white"/>
<path d="M148.54 36.4418H147.851C147.828 36.4418 147.819 36.4301 147.819 36.4096V29.3056C147.819 29.2822 147.831 29.2734 147.851 29.2734H148.54C148.564 29.2734 148.576 29.2851 148.576 29.3056V36.4096C148.576 36.4301 148.564 36.4418 148.54 36.4418Z" fill="white"/>
<path d="M156.346 36.4807C156.279 36.5041 156.223 36.4866 156.182 36.428L152.141 31.1652V36.4075C152.141 36.428 152.129 36.4397 152.106 36.4397H151.417C151.393 36.4397 151.385 36.428 151.385 36.4075V29.3738C151.385 29.3035 151.417 29.2567 151.484 29.2333C151.552 29.2099 151.608 29.2245 151.649 29.2831L155.689 34.5459V29.5465C155.689 29.4704 155.716 29.4031 155.771 29.3504C155.824 29.2977 155.889 29.2714 155.965 29.2714H156.413C156.437 29.2714 156.446 29.2831 156.446 29.3035V36.3373C156.446 36.4105 156.413 36.4573 156.346 36.4807Z" fill="white"/>
<path d="M158.865 36.4242C158.859 36.4359 158.85 36.4418 158.833 36.4418H158.079C158.067 36.4418 158.059 36.4359 158.053 36.4271C158.044 36.4154 158.044 36.4067 158.05 36.3949L161.161 29.3232C161.19 29.2558 161.243 29.2207 161.319 29.2207C161.393 29.2207 161.445 29.2558 161.478 29.3232L164.589 36.3949C164.595 36.4037 164.592 36.4154 164.586 36.4271C164.58 36.4359 164.568 36.4418 164.556 36.4418H164.008C163.859 36.4418 163.753 36.3745 163.694 36.2398L163.079 34.8407H159.563L158.865 36.4242ZM161.316 30.8423L159.891 34.0826H162.741L161.316 30.8423Z" fill="white"/>
<path d="M171.154 36.4807C171.087 36.5041 171.031 36.4866 170.99 36.428L166.949 31.1652V36.4075C166.949 36.428 166.937 36.4397 166.914 36.4397H166.225C166.201 36.4397 166.19 36.428 166.19 36.4075V29.3738C166.19 29.3035 166.225 29.2567 166.292 29.2333C166.36 29.2099 166.415 29.2245 166.457 29.2831L170.497 34.5459V29.5465C170.497 29.4704 170.524 29.4031 170.579 29.3504C170.632 29.2977 170.697 29.2714 170.773 29.2714H171.221C171.245 29.2714 171.254 29.2831 171.254 29.3035V36.3373C171.254 36.4105 171.221 36.4573 171.154 36.4807Z" fill="white"/>
<path d="M179.118 29.6538V30.488C179.118 30.5027 179.112 30.5114 179.098 30.5202C179.086 30.5261 179.074 30.5261 179.062 30.5173C178.52 30.087 177.898 29.8704 177.203 29.8704C176.376 29.8704 175.67 30.1602 175.086 30.7456C174.503 31.331 174.209 32.0364 174.209 32.8619C174.209 33.6873 174.503 34.3898 175.086 34.9723C175.673 35.5577 176.376 35.8475 177.203 35.8475C177.898 35.8475 178.52 35.6309 179.062 35.2006C179.074 35.1918 179.086 35.1918 179.098 35.1947C179.112 35.2035 179.118 35.2123 179.118 35.2269V35.7948C179.118 35.9938 179.027 36.1373 178.845 36.228C178.326 36.4797 177.778 36.6056 177.2 36.6056C176.165 36.6056 175.28 36.2397 174.547 35.5079C173.814 34.7762 173.447 33.8922 173.447 32.859C173.447 31.8228 173.814 30.9417 174.547 30.207C175.28 29.4753 176.162 29.1094 177.2 29.1094C177.884 29.1094 178.517 29.2821 179.098 29.6245C179.112 29.6304 179.118 29.6392 179.118 29.6538Z" fill="white"/>
<path d="M182.305 36.4418H181.616C181.593 36.4418 181.584 36.4301 181.584 36.4096V29.3056C181.584 29.2822 181.596 29.2734 181.616 29.2734H182.305C182.329 29.2734 182.341 29.2851 182.341 29.3056V36.4096C182.344 36.4301 182.332 36.4418 182.305 36.4418Z" fill="white"/>
<path d="M185.906 32.301H187.956C187.979 32.301 187.988 32.3127 187.988 32.3361V32.784C187.988 32.8601 187.962 32.9274 187.909 32.9801C187.856 33.0328 187.789 33.0591 187.713 33.0591H185.903V35.6876H187.713C187.792 35.6876 187.856 35.714 187.909 35.7666C187.962 35.8193 187.988 35.8867 187.988 35.9628V36.4077C187.988 36.4311 187.976 36.4399 187.956 36.4399H185.422C185.346 36.4399 185.282 36.4135 185.226 36.3608C185.173 36.3082 185.147 36.2438 185.147 36.1677V29.3037C185.147 29.2803 185.159 29.2715 185.182 29.2715H187.959C187.982 29.2715 187.991 29.2832 187.991 29.3037V29.9915C187.991 30.015 187.979 30.0267 187.959 30.0267H185.909V32.301H185.906Z" fill="white"/>
<path d="M191.246 33.4133V36.4077C191.246 36.4311 191.234 36.4428 191.211 36.4428H190.522C190.498 36.4428 190.486 36.4311 190.486 36.4077V29.3037C190.486 29.2832 190.498 29.2715 190.522 29.2715H192.897C193.357 29.2715 193.753 29.3915 194.084 29.6315C194.386 29.851 194.609 30.1438 194.753 30.5155C194.856 30.7789 194.908 31.0541 194.908 31.3438C194.908 31.6307 194.856 31.9058 194.753 32.1722C194.463 32.9128 193.926 33.3225 193.14 33.4016L195.345 36.3901C195.354 36.4018 195.354 36.4135 195.348 36.4252C195.342 36.4369 195.333 36.4428 195.319 36.4428H194.656C194.518 36.4428 194.407 36.3872 194.322 36.276L192.272 33.4952C192.231 33.4396 192.175 33.4133 192.105 33.4133H191.246ZM191.246 32.6552H192.897C193.466 32.6552 193.85 32.4034 194.046 31.8971C194.114 31.7244 194.146 31.54 194.146 31.3438C194.146 31.1448 194.114 30.9604 194.046 30.7848C193.847 30.2813 193.466 30.0296 192.897 30.0296H191.246V32.6552Z" fill="white"/>
<path d="M204.18 32.859C204.18 33.8922 203.814 34.7733 203.081 35.5079C202.347 36.2397 201.462 36.6056 200.427 36.6056C199.392 36.6056 198.506 36.2397 197.773 35.5079C197.04 34.7762 196.674 33.8922 196.674 32.859C196.674 31.8228 197.04 30.9388 197.773 30.207C198.503 29.4753 199.389 29.1094 200.427 29.1094C201.462 29.1094 202.347 29.4753 203.081 30.207C203.814 30.9388 204.18 31.8228 204.18 32.859ZM198.31 30.7427C197.726 31.3281 197.433 32.0335 197.433 32.859C197.433 33.6844 197.723 34.3869 198.31 34.9694C198.896 35.5548 199.603 35.8446 200.427 35.8446C201.254 35.8446 201.96 35.5519 202.544 34.9694C203.13 34.3869 203.421 33.6815 203.421 32.859C203.421 32.0335 203.127 31.3281 202.544 30.7427C201.96 30.1602 201.254 29.8675 200.427 29.8675C199.6 29.8675 198.896 30.1602 198.31 30.7427Z" fill="white"/>
<path d="M85.9687 22.3982C85.8925 22.9134 85.7664 23.411 85.5816 23.9173C84.3501 27.2513 81.0835 29.7364 77.3244 29.7364C72.5037 29.7364 68.5804 25.8199 68.5804 21.0078C68.5804 19.1433 69.1727 17.4134 70.1755 15.9938L63.7832 13.4004C62.5106 15.6513 61.7804 18.2447 61.7804 21.0078C61.7804 29.5637 68.7534 36.5242 77.3244 36.5242C83.1713 36.5242 88.2735 33.2869 90.9272 28.5128C91.54 27.4123 92.0209 26.2297 92.3522 24.9857L85.9687 22.3982Z" fill="white"/>
</svg>
